<svg xmlns="http://www.w3.org/2000/svg" width="400" height="300" fill="none" viewBox="0 0 400 300">
  <g class="People working in a informal environment">
    <path fill="#F6D4A0" d="M237.055 63.84H191C157.705 99.335 101.23 198.95 44.26 210.5c0 0 322.36-4.88 319.36-7.5-45.4-39.705-95.36-105.865-126.565-139.16Z" class="shade10"/>
    <path fill="#fff" d="M232.595 61c0-.39.035-.785.035-1.185 0-10.765-19.315-19.5-19.315-19.5S194 49.025 194 59.79c0 .4 0 .795.04 1.185l38.555.025Z" class="shade0"/>
    <path fill="#28192D" d="M232.589 61.225h-38.555a.252.252 0 0 1-.172-.068.253.253 0 0 1-.078-.167c-.025-.42-.04-.81-.04-1.2 0-4.5 3.375-9.32 9.765-14a62.185 62.185 0 0 1 9.7-5.735.245.245 0 0 1 .205 0 62.318 62.318 0 0 1 9.705 5.735c6.385 4.665 9.76 9.5 9.76 14 0 .385 0 .79-.04 1.2a.253.253 0 0 1-.078.167.252.252 0 0 1-.172.068Zm-38.32-.5h38.085c0-.32.025-.635.025-.935 0-10.075-17.55-18.5-19.065-19.215-1.5.71-19.07 9.14-19.07 19.215 0 .305.01.615.025.935Zm19.045-22.05a.25.25 0 0 1-.25-.25v-20.74a.25.25 0 0 1 .5 0v20.74a.256.256 0 0 1-.25.25Zm44.951 70.825s-.295.07-.765.15c-1.4.245-4.34.59-5.41-.55-1.43-1.5-.71-2.805-.71-2.805s-2.64-.14-3.12-3.55a8.498 8.498 0 0 1 1.28-5.81s-1.605-1.045-1.365-5.645 6.73-5.5 6.73-5.5l6.24 14.5-2.88 9.21Z" class="shade90"/>
    <path fill="#28192D" d="M235.285 61.225h-43.91a.251.251 0 0 1-.25-.25.25.25 0 0 1 .25-.25h43.91a.251.251 0 0 1 .25.25.253.253 0 0 1-.075.175.253.253 0 0 1-.175.075Zm19.365 46.955s-3.22 1.105-4.905-.465-.81-3.95-.81-3.95-4.3-3.825-4.3-8.185 1.5-5.115 1.5-5.115-.19.06.285-2.905 4.88-2.59 4.88-2.59-2.32-3.145.355-4.545 3.79-1.245 3.79-1.245-.94-.53 1.5-2.13c2.44-1.6 6.055 2.13 6.055 2.13l-9.525 12.39-2.825 8.885 4 7.725Zm-165.325 62.6h-.155c-27.78-.375-31.595-16.805-31.63-16.97a.261.261 0 0 1 .196-.3.256.256 0 0 1 .294.195c.035.16 3.79 16.205 31.145 16.575h.145c27.545 0 96.375-103.935 97.07-105a.25.25 0 0 1 .158-.108.249.249 0 0 1 .293.196.243.243 0 0 1-.036.187c-.175.265-17.625 26.68-38.26 52.705-27.625 34.855-47.545 52.52-59.22 52.52Z" class="shade90"/>
    <path fill="#28192D" d="M359.355 192.5a.23.23 0 0 1-.145-.05c-10.035-7.145-41.5-41.69-66.14-69.415C266.385 93 241.755 64.29 241.5 64a.255.255 0 0 1 .03-.355.235.235 0 0 1 .181-.06.243.243 0 0 1 .169.09c1 1.145 98.465 114.73 117.61 128.36a.259.259 0 0 1 .101.163.258.258 0 0 1-.126.267.25.25 0 0 1-.11.035Z" class="shade90"/>
    <path fill="#fff" d="m343.096 128.16 3.97-5.76s-3.19-13.85-3.5-16.57c-.31-2.72-3.11-.935-3.11 1.555S340.301 121 340.301 121" class="shade0"/>
    <path fill="#28192D" d="M343.095 128.41a.236.236 0 0 1-.14-.045.245.245 0 0 1-.065-.345l3.905-5.67c-.32-1.39-3.185-13.885-3.5-16.5-.05-.44-.24-1.17-.83-1.14-.72.04-1.785 1.18-1.785 2.67 0 2.465-.155 13.5-.155 13.62a.278.278 0 0 1-.255.245.254.254 0 0 1-.094-.019.238.238 0 0 1-.133-.136.255.255 0 0 1-.018-.095c0-.115.155-11.155.155-13.615 0-1.715 1.215-3.11 2.255-3.17.27 0 1.18.05 1.355 1.585.305 2.68 3.465 16.41 3.5 16.545a.229.229 0 0 1-.035.2l-3.97 5.76a.233.233 0 0 1-.082.077.231.231 0 0 1-.108.033Z" class="shade90"/>
    <path fill="#fff" d="M76.315 124.155s-1.745-5.025-2.73-7.74c-.985-2.715-.815-3.24-1.335-4.11-.52-.87 3.35-1.73 4.55 1.75 1.2 3.48 1.5 9.45 1.5 9.45l1.5-5.26" class="shade0"/>
    <path fill="#28192D" d="M76.315 124.405a.245.245 0 0 1-.235-.17c0-.05-1.755-5.055-2.73-7.735a24.408 24.408 0 0 1-.85-2.775 4.216 4.216 0 0 0-.465-1.29.557.557 0 0 1 0-.6c.265-.41 1.075-.635 1.92-.53a3.696 3.696 0 0 1 3.07 2.665c.855 2.475 1.265 6.135 1.435 8.125l1.13-3.92a.25.25 0 0 1 .046-.09.246.246 0 0 1 .077-.066.254.254 0 0 1 .197-.024.257.257 0 0 1 .157.123.254.254 0 0 1 .023.197l-1.5 5.26a.251.251 0 0 1-.424.104.248.248 0 0 1-.066-.159c0-.06-.34-6-1.5-9.385a3.236 3.236 0 0 0-2.66-2.335 1.73 1.73 0 0 0-1.44.305v.07c.244.446.413.929.5 1.43.226.924.505 1.833.835 2.725 1 2.685 2.715 7.69 2.73 7.74a.253.253 0 0 1-.155.32.22.22 0 0 1-.095.015Z" class="shade90"/>
    <path fill="#fff" d="m340 157.435-7.435-5.055-1.2-1.975s11.305.7 15.835 3.5a20.354 20.354 0 0 1 6.755 7.175s-6.13 2.035-13.955-3.645Z" class="shade0"/>
    <path fill="#28192D" d="M351.065 161.705c-2.565 0-6.581-.705-11.206-4.065l-7.429-5.055a.255.255 0 0 1-.075-.075l-1.2-1.975a.26.26 0 0 1 0-.255.228.228 0 0 1 .23-.12c.465.025 11.42.73 15.955 3.55a20.768 20.768 0 0 1 6.84 7.29.27.27 0 0 1 .022.105.27.27 0 0 1-.022.105.28.28 0 0 1-.155.14c-.964.263-1.962.383-2.96.355Zm-18.31-9.5 7.39 5c6.66 4.84 12.129 4 13.434 3.705a20.278 20.278 0 0 0-6.5-6.8c-3.9-2.425-13.039-3.27-15.239-3.445l.915 1.54Zm-54.44-59.26s1.32.16 1.56-3.5-.78-5.605-.78-5.605.78-2.8-.78-5.04-13-.88-13-.88l-1.075 4.64 11.32 7.5" class="shade90"/>
    <path fill="#fff" d="M214 206.46s2.5-42.775 12.875-61.67c10.375-18.895 30.61-20.35 37.315-20.765 6.705-.415.795 2.22 9.725 0s34.56 11.2 38.3 28.225c3.74 17.025 9.965 60.82 9.965 60.82L214 206.46Z" class="shade0"/>
    <path fill="#28192D" d="M322.194 213.335 214 206.71a.242.242 0 0 1-.224-.167.251.251 0 0 1-.011-.098c0-.105.645-10.85 2.545-23.77 1.755-11.93 5-28.21 10.36-38 4.46-8.115 11.245-14 20.165-17.425 7.385-2.85 14.37-3.285 17.355-3.465 2.985-.18 3.595.25 4.035.605.44.355.769.615 5.644-.59 4.35-1.075 12.501 1.45 20.26 6.275 9.925 6.17 16.61 14.24 18.345 22.145 3.695 16.84 9.905 60.395 9.97 60.835a.242.242 0 0 1-.065.2.238.238 0 0 1-.185.08Zm-107.914-7.11 107.624 6.59c-.56-3.925-6.39-44.415-9.92-60.5-1.705-7.77-8.31-15.725-18.12-21.825-7.66-4.76-15.65-7.26-19.875-6.215-5.12 1.27-5.499.975-6.079.5-.37-.3-.836-.675-3.691-.5-2.96.185-9.89.615-17.205 3.435-8.804 3.405-15.5 9.19-19.91 17.2-5.34 9.73-8.55 25.945-10.3 37.835-1.735 11.81-2.419 21.8-2.524 23.48Z" class="shade90"/>
    <path fill="#fff" d="M309.914 80.93s19.715 2.625 32.21 6.125Z" class="shade0"/>
    <path fill="#28192D" d="M342.125 87.305h-.07c-12.33-3.46-32-6.095-32.175-6.12a.261.261 0 0 1-.168-.096.25.25 0 0 1 .233-.404c.2.03 19.88 2.67 32.245 6.135a.252.252 0 0 1 .15.12.254.254 0 0 1 .025.19.25.25 0 0 1-.24.175Z" class="shade90"/>
    <path fill="#fff" d="M305.41 76.255s-2.86 32.295-5.825 44.945c-2.965 12.65 1 20.605 1 20.605l36.105 11s-1.7-9.18-1.28-16c.42-6.82 8.5-49.115 9.43-51.245.93-2.13-24.84-10.11-39.43-9.305Z" class="shade0"/>
    <path fill="#28192D" d="M336.689 153.05a.19.19 0 0 1-.075 0l-36.1-11a.25.25 0 0 1-.155-.13c-.04-.08-3.97-8.175-1-20.77 2.93-12.5 5.795-44.585 5.82-44.91a.257.257 0 0 1 .235-.23c13.5-.735 37.6 6.2 39.565 9a.639.639 0 0 1 .11.645c-.425 1-2.57 11.44-4.885 23.815-2.05 10.92-4.31 23.835-4.5 27.345-.41 6.7 1.26 15.84 1.275 15.93a.253.253 0 0 1-.08.235.244.244 0 0 1-.21.07Zm-35.925-11.45 35.61 10.845c-.32-1.855-1.58-9.695-1.215-15.65.41-6.69 8.43-48.96 9.45-51.33 0-.025 0-.09-.06-.16-1.65-2.36-25.145-9.5-38.91-8.81-.255 2.85-3 32.78-5.81 44.765-2.735 11.675.51 19.4.935 20.34Z" class="shade90"/>
    <path fill="#fff" d="M311.471 81.12s12.35 1.145 30.47 7.435Z" class="shade0"/>
    <path fill="#28192D" d="M341.939 88.805h-.08c-17.88-6.21-30.29-7.415-30.41-7.425a.248.248 0 0 1-.217-.175.256.256 0 0 1 .017-.191.27.27 0 0 1 .062-.077.245.245 0 0 1 .183-.057c.125 0 12.585 1.22 30.53 7.45a.255.255 0 0 1 .155.32.257.257 0 0 1-.24.155Z" class="shade90"/>
    <path fill="#fff" d="M317.154 86.355s11.17.655 18.855 4.05Z" class="shade0"/>
    <path fill="#28192D" d="M336 90.655a.225.225 0 0 1-.1 0c-7.555-3.34-18.66-4.025-18.77-4.03a.245.245 0 0 1-.235-.265.259.259 0 0 1 .084-.172.251.251 0 0 1 .181-.063c.11 0 11.305.7 18.94 4.07a.256.256 0 0 1 .163.109.253.253 0 0 1 .037.191.254.254 0 0 1-.3.2v-.04Zm-8.175 6.845h-.04l-19.5-3.39a.253.253 0 1 1 .085-.5l19.5 3.39a.238.238 0 0 1 .2.188.225.225 0 0 1 0 .097.244.244 0 0 1-.245.215Zm-8.525 4.71h-.03l-14.645-1.775a.26.26 0 0 1-.22-.28.259.259 0 0 1 .28-.22l14.645 1.775a.261.261 0 0 1 .22.28.254.254 0 0 1-.25.22Zm-1.564 10.185-7.045-.45a.246.246 0 0 1-.174-.082.242.242 0 0 1-.061-.183.229.229 0 0 1 .081-.174.235.235 0 0 1 .184-.056l7.045.445a.25.25 0 0 1 0 .5h-.03Zm2.369 7.4h-.04l-15.74-2.255a.24.24 0 0 1-.21-.182.256.256 0 0 1 .28-.313l15.745 2.255a.25.25 0 0 1 .128.433.256.256 0 0 1-.163.062Zm-13.336 12.05a2.4 2.4 0 1 0 0-4.8 2.4 2.4 0 0 0 0 4.8Zm28.267-33.165h-.035l-4.24-.8a.25.25 0 0 1-.2-.29.247.247 0 0 1 .034-.091.25.25 0 0 1 .158-.109.247.247 0 0 1 .098 0l4.245.8a.25.25 0 0 1 .225.275.252.252 0 0 1-.275.225l-.01-.01Z" class="shade90"/>
    <path fill="#fff" d="m256.949 104.735.05 22.765a9.64 9.64 0 0 0 9.64 9.62 9.639 9.639 0 0 0 9.325-12.09l-4.965-18.875-14.05-1.42Z" class="shade0"/>
    <path fill="#28192D" d="M266.634 137.365a9.898 9.898 0 0 1-9.89-9.865l-.045-22.76a.25.25 0 0 1 .183-.241.244.244 0 0 1 .117.001l14 1.405a.245.245 0 0 1 .215.185l4.965 18.87a9.884 9.884 0 0 1-5.201 11.39 9.887 9.887 0 0 1-4.364 1.015h.02ZM257.199 105l.045 22.5a9.395 9.395 0 0 0 3.201 7.045 9.386 9.386 0 0 0 7.404 2.249 9.393 9.393 0 0 0 8.045-7.75 9.404 9.404 0 0 0-.18-3.954l-4.92-18.7-13.595-1.39Z" class="shade90"/>
    <path fill="#28192D" d="M260.21 109.645c.17.7.34 1.4.5 2.095 0 .06.2.68.21.72.115.36.235.715.37 1.07a7.514 7.514 0 0 0 1.53 2.555l.595.25c.5.185.96.345 1.445.5a31.792 31.792 0 0 1 4.905 2c1.67.261 3.308.7 4.885 1.31l-3.675-14-12.09-1.225c.54 1.58.935 3.145 1.325 4.725Z" class="shade90"/>
    <path fill="#fff" d="M269.55 79.18s6.565 4 8.805 10.245c2.24 6.245 3.84 17.045.32 21.77-3.52 4.725-22.81.16-23.21-15.13-.4-15.29 14.085-16.885 14.085-16.885Z" class="shade0"/>
    <path fill="#28192D" d="M273.625 113.225a17.819 17.819 0 0 1-5.325-.89c-6.17-1.96-12.85-7.26-13.085-16.26-.405-15.34 14.16-17.13 14.31-17.145a.24.24 0 0 1 .155.035c.065.04 6.665 4.12 8.91 10.375a43.66 43.66 0 0 1 2.335 11.5c.195 3.27 0 7.74-2.05 10.5-.925 1.24-2.85 1.885-5.25 1.885ZM269.5 79.44c-1.295.165-14.155 2.185-13.775 16.62.225 8.74 6.73 13.895 12.735 15.8 4.415 1.4 8.63 1.055 10.025-.815 3.435-4.605 1.86-15.365-.355-21.535-2.07-5.74-7.92-9.615-8.63-10.07Zm33.314 132.355a.252.252 0 0 1-.25-.25v-53.74a.252.252 0 0 1 .25-.25.25.25 0 0 1 .25.25v53.74a.25.25 0 0 1-.25.25Z" class="shade90"/>
    <path fill="#fff" d="M123.025 211.365s15.095-.47 13.26-17.695c-.805-7.56-20.18-3.105-20.18-3.105l6.92 20.8Z" class="shade0"/>
    <path fill="#28192D" d="M123.025 211.615a.26.26 0 0 1-.147-.047.263.263 0 0 1-.093-.123l-6.92-20.805a.255.255 0 0 1 .022-.201.254.254 0 0 1 .163-.119c.56-.13 13.815-3.125 18.715.365a4.04 4.04 0 0 1 1.77 2.96c.59 5.56-.5 10-3.25 13.135-4 4.59-10.19 4.835-10.255 4.835h-.005Zm-6.595-20.865 6.77 20.355c1.04-.08 6.24-.67 9.71-4.66 2.65-3.045 3.705-7.335 3.125-12.75a3.534 3.534 0 0 0-1.56-2.6c-4.345-3.095-16.115-.76-18.045-.345Z" class="shade90"/>
    <path fill="#A6C2EA" d="M139.03 137.955a6.301 6.301 0 0 0-4.875 1.97c-3.42 3.63-10.125 11.715-13.385 22.34a109.382 109.382 0 0 0-4.5 28.5s15.5 6.765 22.74 2.74l7.24-4-7.22-51.55Z" class="shade50"/>
    <path fill="#28192D" d="M133.035 195.06a34.373 34.373 0 0 1-8.15-1.155A61.905 61.905 0 0 1 116.19 191a.246.246 0 0 1-.15-.23 110.492 110.492 0 0 1 4.5-28.59c3.235-10.56 9.81-18.595 13.44-22.44a6.515 6.515 0 0 1 2.308-1.58 6.518 6.518 0 0 1 2.757-.47.247.247 0 0 1 .235.215l7.22 51.565a.253.253 0 0 1-.125.255l-7.24 4c-1.565.9-3.61 1.335-6.1 1.335Zm-16.5-4.44c1.62.68 15.695 6.395 22.365 2.69l7.1-3.94-7.19-51.17a6.005 6.005 0 0 0-4.47 1.895c-3.6 3.82-10.12 11.785-13.33 22.245a110.403 110.403 0 0 0-4.47 28.28h-.005Z" class="shade90"/>
    <path fill="#A6C2EA" d="M135.501 178.45a9.148 9.148 0 0 1-6.19-5.085 20.997 20.997 0 0 1-.975-14.67c1.63-5.47 3.58-11.79 4.91-15.5 2.705-7.5 14.775-17.545 35-16.085 20.225 1.46 21.965 80.435 21.965 80.435l-51.5-1.725-3.21-27.37Z" class="shade50"/>
    <path fill="#fff" d="M156.73 145.285c-4.205 0-8.335-2.925-9.245-3.61l-1.585 1.59c-.635.635-1.715.585-2.96-.14-2.04-1.18-4.465-4.275-3.72-7.025 1.07-3.955 7.945-5.795 8.24-5.87l.125.5c-.07 0-6.89 1.845-7.885 5.5-.68 2.5 1.59 5.365 3.5 6.46 1.035.6 1.895.68 2.355.22l1.9-1.9.175.14c.05.04 4.915 3.845 9.5 3.625a3.385 3.385 0 0 0 2.42-1.135c1.915-2.12 1.72-6.47 1.715-6.5l-.035-.715.475.535s1.675 1.855 3.33 1.55c1-.195 1.835-1.15 2.46-2.845 2.075-5.64-2.415-8.03-2.61-8.125l.23-.445c.05.025 5.08 2.68 2.85 8.74-.69 1.875-1.645 2.94-2.84 3.165-1.38.26-2.69-.68-3.35-1.27 0 1.325-.23 4.46-1.855 6.255a3.848 3.848 0 0 1-2.765 1.3h-.425Z" class="shade0"/>
    <path fill="#28192D" d="m190.205 207.815-51.5-1.725a.251.251 0 0 1-.161-.065.253.253 0 0 1-.079-.155l-3.165-27.22a9.443 9.443 0 0 1-6.19-5.185 21.308 21.308 0 0 1-1-14.84c1.26-4.225 2.37-7.815 3.29-10.67a.261.261 0 0 1 .5.15 533.41 533.41 0 0 0-3.285 10.66 20.786 20.786 0 0 0 .96 14.5 8.97 8.97 0 0 0 2.446 3.163 8.965 8.965 0 0 0 3.579 1.782.258.258 0 0 1 .19.215l3.155 27.18 51.045 1.705c-.14-5.025-2.55-78.535-21.73-79.925-10.54-.765-24.5 1.83-32.12 11.4a.245.245 0 0 1-.167.092.248.248 0 0 1-.183-.052.248.248 0 0 1-.094-.166.247.247 0 0 1 .054-.184c2.46-3.095 12.075-13.065 32.545-11.59 8.5.62 14.84 14.405 18.795 41 2.935 19.71 3.4 39.5 3.405 39.7a.241.241 0 0 1-.018.099.22.22 0 0 1-.158.133.231.231 0 0 1-.114-.002Z" class="shade90"/>
    <path fill="#28192D" d="M135.5 178.7a.253.253 0 0 1-.183-.057.252.252 0 0 1-.032-.354.252.252 0 0 1 .17-.089l3.37-.63a.254.254 0 0 1 .293.304.254.254 0 0 1-.203.196l-3.37.63h-.045Zm32.756-1.85a.25.25 0 0 1-.177-.427.255.255 0 0 1 .177-.073c.08 0 7.685-.38 7.685-3.755a.25.25 0 1 1 .5 0c0 3.85-7.83 4.24-8.16 4.255h-.025Z" class="shade90"/>
    <path fill="#fff" d="M129.5 198.95c-3.675-7.65-10.395-21.47-15.925-31.85-8.435-15.845-19.405-30.72-23.425-32.24-4.02-1.52-7.555-1.065-5.725 6.37 1.83 7.435 13.7 47.97 18.33 58.37 4.535 10.18 27.665 18.89 29.385 5.925" class="shade0"/>
    <path fill="#28192D" d="M123.815 212.295c-7.825 0-18.39-6.055-21.3-12.59-4.68-10.5-16.605-51.335-18.35-58.415-.82-3.345-.625-5.585.585-6.66 1.085-.96 2.93-.965 5.47 0 4.22 1.595 15.23 16.71 23.56 32.355 5.57 10.455 12.37 24.45 15.93 31.86a.261.261 0 0 1 .01.193.26.26 0 0 1-.13.142.246.246 0 0 1-.191.01.25.25 0 0 1-.139-.13c-3.56-7.405-10.355-21.395-15.92-31.84-8.14-15.28-19.245-30.59-23.295-32.12-2.355-.89-4.025-.92-4.965-.09-1.055.94-1.2 3-.425 6.165C86.39 148.24 98.3 189 102.97 199.5c3.08 6.915 14.95 13.285 22.68 12.17 2.5-.365 5.635-1.73 6.225-6.18a.25.25 0 0 1 .495.065c-.5 3.77-2.795 6.05-6.65 6.61-.631.087-1.268.131-1.905.13Z" class="shade90"/>
    <path fill="#fff" d="M88.068 101.366 75.583 105.3a2.1 2.1 0 0 0-1.372 2.634l8.04 25.513a2.1 2.1 0 0 0 2.634 1.372l12.484-3.934a2.1 2.1 0 0 0 1.372-2.634l-8.04-25.513a2.1 2.1 0 0 0-2.633-1.372Z" class="shade0"/>
    <path fill="#28192D" d="M84.25 135.175a2.36 2.36 0 0 1-2.246-1.645l-8.035-25.5a2.346 2.346 0 0 1 1.535-2.945l12.5-3.935a2.36 2.36 0 0 1 2.95 1.535l8.04 25.5a2.354 2.354 0 0 1-1.534 2.95l-12.5 3.93c-.23.074-.47.111-.71.11Zm4.44-33.65c-.189.001-.376.03-.555.085l-12.5 3.935a1.853 1.853 0 0 0-1.21 2.32l8.04 25.5a1.846 1.846 0 0 0 1.602 1.288c.242.021.486-.005.718-.078l12.5-3.935a1.85 1.85 0 0 0 1.205-2.32l-8.035-25.5a1.887 1.887 0 0 0-1.77-1.295h.004Z" class="shade90"/>
    <path fill="#fff" d="m86.745 101.321-12.436 3.927a2.092 2.092 0 0 0-1.364 2.625l8.025 25.412a2.092 2.092 0 0 0 2.624 1.365l12.436-3.927a2.092 2.092 0 0 0 1.365-2.625l-8.025-25.412a2.092 2.092 0 0 0-2.625-1.365Z" class="shade0"/>
    <path fill="#28192D" d="M83.33 135.465a2.352 2.352 0 0 1-2.245-1.645l-8.04-25.5a2.353 2.353 0 0 1 1.54-2.945l12.5-3.935a2.352 2.352 0 0 1 2.95 1.535l8.04 25.5a2.354 2.354 0 0 1-1.535 2.95l-12.5 3.93c-.23.074-.47.111-.71.11Zm4.44-33.65a1.97 1.97 0 0 0-.555.085l-12.5 3.935a1.856 1.856 0 0 0-1.21 2.32l8.04 25.5a1.843 1.843 0 0 0 .909 1.086 1.85 1.85 0 0 0 1.41.124l12.5-3.935a1.85 1.85 0 0 0 1.206-2.32l-8.035-25.5a1.858 1.858 0 0 0-1.765-1.295Z" class="shade90"/>
    <path fill="#A6C2EA" d="M85.275 119.3a2.885 2.885 0 1 0 0-5.77 2.885 2.885 0 0 0 0 5.77Z" class="shade50"/>
    <path fill="#fff" d="M312.195 215.745s6.5-23.935 11.81-40.235c5.55-17.065 12.19-36.21 15.885-38.405 3.695-2.195 6.255-.32 5.75 7.32-.505 7.64-4.105 49.3-6.855 60.345-2.75 11.045-23.335 24.83-26.59 10.975Z" class="shade0"/>
    <path fill="#28192D" d="M318.861 221.82h-.055c-2.5 0-5.69-1.07-6.855-6a.205.205 0 0 1 0-.125c.065-.235 6.575-24.12 11.815-40.24 5.445-16.76 12.185-36.28 16-38.545 1.65-1 3.08-1.155 4.14-.5 1.61 1 2.275 3.695 2 8.055-.44 6.625-4 49-6.86 60.39-2 7.94-12.72 16.965-20.185 16.965Zm-6.41-6.075c.875 3.63 3.07 5.555 6.355 5.575h.055c7.135 0 17.785-8.975 19.68-16.61 2.65-10.65 6.265-51.475 6.85-60.305.27-4.1-.335-6.725-1.75-7.59-1.125-.695-2.59-.11-3.625.5-3.705 2.2-10.775 22.895-15.77 38.27-5.105 15.71-11.42 38.8-11.795 40.16Z" class="shade90"/>
    <path fill="#fff" d="M331.37 150.58s5.37 2.835 9.65 5.72c8 5.395 12.94 4.97 12.94 4.97s-7.065 32.94-17.84 55.895c-10.775 22.955-23.805 26.205-35.905 19.53-12.1-6.675 17.285-63.445 22.685-71.295a101.127 101.127 0 0 0 8.47-14.82Z" class="shade0"/>
    <path fill="#28192D" d="M311.039 240c-3.545 0-7.205-1.035-10.945-3.1-1.33-.73-2.23-2.07-2.68-3.975-3.5-14.75 20.46-60.68 25.275-67.675a101.137 101.137 0 0 0 8.45-14.75.283.283 0 0 1 .15-.135.263.263 0 0 1 .195 0c.055.03 5.435 2.875 9.675 5.735 7.84 5.265 12.73 4.9 12.775 4.9a.244.244 0 0 1 .21.085.238.238 0 0 1 .06.215c-.075.33-7.195 33.23-17.86 55.95-5.67 12.09-12.32 19.445-19.755 21.86a18.009 18.009 0 0 1-5.55.89Zm20.46-89.07a104.09 104.09 0 0 1-8.385 14.615c-2.26 3.28-9.435 16.39-15.695 30.84-5.35 12.34-11.34 28.68-9.5 36.435.415 1.765 1.235 3 2.435 3.655 5.605 3.095 11.025 3.825 16.1 2.18 7.3-2.37 13.845-9.635 19.46-21.595 10.085-21.5 17-52.105 17.75-55.535-1.245 0-5.85-.36-12.765-5-3.735-2.525-8.33-5.025-9.4-5.595Z" class="shade90"/>
    <path fill="#fff" d="M85.15 144.18s-1.3-4.05-2.44-6.615c-1.14-2.565-3.745-5.785-5.385-7.805a36.27 36.27 0 0 1-1.95-3.56c-.5-1.2.23-7 .2-8.73-.03-1.73 5.5-11.65 6.185-11.8.685-.15 1.1.73 1.305 1.875.205 1.145-3.245 9-3.575 9.78a.264.264 0 0 0 0 .125l.07 2.635c0 .05 0 .03.05-.035a9.313 9.313 0 0 1 1.865-2.635 17.13 17.13 0 0 1 2.185-1.89 33.203 33.203 0 0 1 4.395-1.975c1.025-.425 3.34-1.17 4.265-.87.925.3-.32 1.82-3.285 3.32-1 .5-2.375 1.405-3.905 2.39a5.992 5.992 0 0 0-2.66 4.08l-.335 2.105a.29.29 0 0 0 .337.347.29.29 0 0 0 .163-.092c1.06-1 9.62-6.065 12.765-6.75.395-.085.585.405.5.77-.365 1.39-2.865 3.46-4.055 4.12-3 1.675-6.75 4.23-6.75 4.23-.095.26.205.18.43.025 1.32-.925 10.175-3.57 11.535-4.5.67-.45 1.03 1.645-.605 2.875-2.84 2.14-7.155 3.5-7 4.06.045.135 4.765 4.07 5 7.5.235 3.43-2.5 5.84-2.5 5.84" class="shade0"/>
    <path fill="#28192D" d="M85.15 144.43a.244.244 0 0 1-.235-.175c0-.04-1.31-4.065-2.43-6.59-1.12-2.525-3.775-5.8-5.355-7.75l-.035-.05a36.444 36.444 0 0 1-1.965-3.595c-.35-.845-.15-3.575.025-6 .09-1.21.165-2.255.155-2.84-.025-1.59 5.405-11.835 6.385-12.045a.875.875 0 0 1 .7.13c.415.28.72.93.9 1.94.2 1.105-2.695 7.875-3.59 9.925l.045 1.77a8.995 8.995 0 0 1 1.5-1.96 15.574 15.574 0 0 1 2.24-1.93 28.965 28.965 0 0 1 3.725-1.71c.24-.095.465-.18.69-.275.88-.36 3.38-1.225 4.445-.88a.615.615 0 0 1 .5.545c.065.795-1.385 2.085-3.69 3.285-1 .5-2.39 1.415-3.88 2.375a5.712 5.712 0 0 0-2.55 3.905l-.335 2.11.06.03c1.165-1.085 9.765-6.13 12.88-6.81a.6.6 0 0 1 .585.18 1.002 1.002 0 0 1 .205.895c-.385 1.5-2.96 3.605-4.17 4.28-1.74.96-3.73 2.23-5.095 3.12 1.14-.455 2.735-1 4.385-1.59 2.465-.865 5-1.755 5.66-2.195a.497.497 0 0 1 .75.135c.435.605.23 2.17-1.065 3.145a29.478 29.478 0 0 1-4.865 2.75c-.695.293-1.365.646-2 1.055l.18.17c1.13 1.075 4.57 4.345 4.78 7.36.245 3.5-2.5 5.94-2.59 6.045a.258.258 0 0 1-.182.06.252.252 0 0 1-.234-.265.244.244 0 0 1 .086-.17c.025-.025 2.65-2.38 2.42-5.635-.13-1.875-1.685-4.24-4.625-7.035-.31-.295-.335-.32-.36-.4-.15-.47.56-.81 2.28-1.635a28.885 28.885 0 0 0 4.785-2.7 2.5 2.5 0 0 0 1.06-2.13c-.03-.255-.11-.35-.13-.355-.735.5-3.2 1.355-5.81 2.27-2.5.88-5.12 1.795-5.755 2.24-.105.075-.475.3-.715.12a.35.35 0 0 1-.1-.43.266.266 0 0 1 .095-.125c.04-.025 3.775-2.58 6.775-4.245 1.195-.66 3.595-2.67 3.93-3.965a.501.501 0 0 0-.08-.425.114.114 0 0 0-.115-.035c-3.12.68-11.7 5.8-12.65 6.69a.536.536 0 0 1-.628.073.542.542 0 0 1-.267-.573l.335-2.105a6.201 6.201 0 0 1 2.77-4.25c1.5-.965 2.92-1.88 3.925-2.4 2.415-1.255 3.455-2.39 3.42-2.795 0 0 0-.075-.13-.115-.77-.25-2.86.355-4.095.865l-.705.28a28.685 28.685 0 0 0-3.665 1.685 14.225 14.225 0 0 0-2.135 1.85 9.18 9.18 0 0 0-1.81 2.565c-.095.2-.225.215-.32.195a.287.287 0 0 1-.205-.26l-.07-2.64a.536.536 0 0 1 .04-.23c1.805-4.14 3.685-8.92 3.56-9.635-.155-.845-.395-1.42-.69-1.615a.38.38 0 0 0-.315-.06c-.625.365-6 9.78-6 11.55 0 .61-.07 1.665-.155 2.885-.155 2.12-.37 5-.065 5.755a36.572 36.572 0 0 0 1.935 3.5c1.59 1.965 4.26 5.26 5.415 7.86 1.155 2.6 2.435 6.595 2.45 6.64a.256.256 0 0 1-.16.315l-.055.075Z" class="shade90"/>
    <path fill="#28192D" d="M78.96 123.735h-.05a.25.25 0 0 1-.2-.29l.675-3.565a.253.253 0 0 1 .198-.202.255.255 0 0 1 .302.297l-.67 3.56a.256.256 0 0 1-.255.2Z" class="shade90"/>
    <path fill="#fff" d="M87.9 130.5s.745-.17 1.88-1.31Z" class="shade0"/>
    <path fill="#28192D" d="M87.9 130.77a.252.252 0 0 1-.055-.5 4.544 4.544 0 0 0 1.76-1.24.238.238 0 0 1 .08-.054.238.238 0 0 1 .095-.019c.033 0 .065.006.095.019a.251.251 0 0 1 .135.328.251.251 0 0 1-.055.081c-1.175 1.18-1.97 1.37-2 1.38l-.055.005Z" class="shade90"/>
    <path fill="#fff" d="M79.84 128.22s2.34 2.425 4.665 1.91Z" class="shade0"/>
    <path fill="#28192D" d="M83.83 130.45c-2.155 0-4.08-1.965-4.17-2.055a.259.259 0 0 1-.071-.179.255.255 0 0 1 .076-.176.248.248 0 0 1 .178-.071.242.242 0 0 1 .177.076c.025.025 2.275 2.32 4.43 1.84a.25.25 0 0 1 .2.447.262.262 0 0 1-.09.038 3.38 3.38 0 0 1-.73.08Z" class="shade90"/>
    <path fill="#fff" d="M338.754 147a7.345 7.345 0 0 1-3.13-3.255c-.73-1.5-2.19-10.165-1.575-12.34a20.46 20.46 0 0 0 .7-4.185s-7-4-8.88-5.11c-1.88-1.11-.745-2.12-.12-2.315a5.588 5.588 0 0 1 1.54-.17s-3.905-.845-3.92-2.805c-.015-1.96 7.24.45 9 .96 1.76.51 6.095 1.865 6.095 1.865s-11.775-4.5-13.345-6.755c-1.57-2.255.815-3 5.63-1.145 4.815 1.855 5.885 2.125 8.04 3.305a21.383 21.383 0 0 1 3.535 2.405s-2.725-4.91-4.09-6.83c-1.365-1.92-3.345-4.745-3.19-5.65.155-.905.425-1.695 1.9-.965 1.475.73 7.05 9.54 10 14.5 2.95 4.96 1.25 7.62.14 10.295-1.11 2.675-1.395 13.885-1.395 13.885" class="shade0"/>
    <path fill="#28192D" d="M338.755 147.23a.23.23 0 0 1-.115-.03 7.502 7.502 0 0 1-3.24-3.37c-.735-1.5-2.215-10.295-1.59-12.5.356-1.298.583-2.628.68-3.97-1-.56-7.05-4-8.75-5.04-.825-.5-1.21-1.05-1.14-1.615a1.547 1.547 0 0 1 1.075-1.155c.09-.029.182-.052.275-.07-1.205-.445-2.82-1.3-2.83-2.665a.83.83 0 0 1 .34-.7c1.085-.81 4.64.11 8.32 1.22l.655.2.89.26c-3.435-1.5-7.5-3.475-8.415-4.77-.73-1.035-.57-1.655-.31-2 .725-.925 3.055-.75 6.235.47 1.195.46 2.16.82 2.97 1.125a33.936 33.936 0 0 1 5.1 2.195 23.346 23.346 0 0 1 2.575 1.645c-.885-1.56-2.5-4.375-3.455-5.705-1.725-2.43-3.395-4.885-3.23-5.84.09-.5.225-1.11.705-1.35.375-.19.885-.125 1.55.205 2 1 10.035 14.47 10.115 14.61 2.74 4.6 1.54 7.335.5 9.745-.115.255-.225.5-.33.77-1.085 2.6-1.37 13.685-1.375 13.8a.247.247 0 0 1-.25.24.246.246 0 0 1-.245-.255c0-.46.295-11.295 1.41-14 .11-.255.225-.5.335-.775 1.06-2.415 2.155-4.91-.455-9.29-3.1-5.215-8.53-13.735-9.905-14.415-.5-.255-.88-.325-1.105-.21-.225.115-.365.555-.44 1-.14.83 2.165 4.08 3.15 5.465 1.355 1.91 4.075 6.805 4.105 6.85a.266.266 0 0 1 .024.171.254.254 0 0 1-.249.207.25.25 0 0 1-.16-.058 21.852 21.852 0 0 0-3.5-2.37 33.56 33.56 0 0 0-5.035-2.165c-.81-.305-1.775-.665-3-1.125-3.27-1.255-5.2-1.225-5.66-.635-.3.39.075 1.045.32 1.4 1.5 2.15 13.115 6.62 13.235 6.665.06.023.109.069.136.128.027.059.03.126.009.187a.256.256 0 0 1-.31.16c-.045 0-4.355-1.365-6.09-1.865l-.66-.2c-1.87-.565-6.84-2.07-7.875-1.3a.32.32 0 0 0-.14.295c0 1.445 2.695 2.34 3.725 2.565a.251.251 0 0 1 .195.275.28.28 0 0 1-.255.22 5.474 5.474 0 0 0-1.46.155 1.064 1.064 0 0 0-.73.74c-.045.35.27.74.905 1.125 1.84 1.12 8.8 5.07 8.87 5.11a.248.248 0 0 1 .13.225 20.324 20.324 0 0 1-.71 4.24c-.595 2.12.89 10.78 1.56 12.165a7 7 0 0 0 3 3.145.25.25 0 0 1-.12.47l.04-.005Z" class="shade90"/>
    <path fill="#fff" d="M337.049 123.315s-5.96-3-9.76-3.71Z" class="shade0"/>
    <path fill="#28192D" d="M337.049 123.56a.23.23 0 0 1-.115-.025c-.06-.03-5.97-3-9.69-3.685a.255.255 0 1 1 .095-.5c3.785.705 9.575 3.605 9.82 3.73a.249.249 0 0 1 .04.414.254.254 0 0 1-.15.056v.01Zm7.582 8.94a.253.253 0 0 1-.215-.13.249.249 0 0 1 0-.25l3.045-5a.25.25 0 0 1 .345-.085.25.25 0 0 1 .085.345l-3.045 5a.267.267 0 0 1-.215.12Zm-8.34-2.755a.261.261 0 0 1-.141-.042.259.259 0 0 1-.094-.113l-.78-1.965-2.84-1.36a.257.257 0 0 1-.141-.141.248.248 0 0 1 .259-.34.24.24 0 0 1 .097.031l2.93 1.4a.26.26 0 0 1 .125.13l.815 2.06a.26.26 0 0 1 .018.096.258.258 0 0 1-.076.176.246.246 0 0 1-.082.053.274.274 0 0 1-.09.015Z" class="shade90"/>
    <path fill="#fff" d="M270.295 252.035c9.19 2.85 14.825 5.615 18.28 7.87 6.94 0 13.37-.115 19.165-.37 8.765-.38 16.17-1.625 22.425-3.5l-7.22-6.93-7.16-1.44c-24.16-4.89-47-9.5-60.025-7.81-15 1.945-25.395 11.105-31.18 17.915 6 .345 11.88.65 17.66.92 5.455-5.12 14.925-10.73 28.055-6.655ZM27.965 231.8c10.41-9.46 11.726-20.8 11.885-23.3.185-2.83 4.45-4.33 7.325-5.025h-14.29l-12.78 19.69a46.515 46.515 0 0 0 7.86 8.635Z" class="shade0"/>
    <path fill="#fff" d="M205.299 239.765c-1.345 6.25-2.625 12.19-11.225 16 6.17.445 12.325.865 18.43 1.25 2.755-2.715 4.84-5.935 7-9.235 4.925-7.595 10.5-16.205 25.56-20.13 10.5-2.74 31.755-2.165 54.56-1l-1.125-1.045a.255.255 0 0 1-.06-.275.252.252 0 0 1 .235-.155h42.165a.263.263 0 0 1 .175.07l4 3.845c5.265.21 10.345.355 15.12.405a49.063 49.063 0 0 0 2.655-13.215c-18.165 1.735-46.715 4.135-65.76 4.135-6.75 0-12.3-.3-15.78-1.04-6.09-1.29-9.635-3.54-10.535-6.685-1.12-3.9 2.17-7.915 3.375-9.22h-14.845c-.5.11-15 3.13-38.685 15.345-12.095 6.245-13.775 14.055-15.26 20.95Z" class="shade0"/>
    <path fill="#fff" d="M355.291 238.96a40.235 40.235 0 0 0 4.65-8.945c-4.53-.05-9.35-.195-14.38-.395l9.73 9.34Zm-84.102-26.405c.845 2.95 4.265 5.08 10.16 6.335 13.25 2.81 56.905-.765 81.465-3.115.228-4.11.04-8.232-.56-12.305h-87.5c-.57.605-4.73 5.03-3.565 9.085Zm-224.849 9.38c-1.265 2.975-1.87 5.415-1.83 7.45 9.895-3.075 20.46-6.385 30.365-9.54A8.669 8.669 0 0 1 70.5 216.8c-3.5-4.745-.795-12.1-.675-12.41l.465.18c0 .07-2.735 7.41.615 11.935a8.53 8.53 0 0 0 4.84 3.075c5.18-1.655 10.165-3.26 14.765-4.765a8.68 8.68 0 0 1-2.69-2.235c-2.78-3.57-1.11-8-1.04-8.19l.465.18c0 .045-1.635 4.365 1 7.71a8.417 8.417 0 0 0 2.945 2.32c3.105-1 6.025-2 8.705-2.885a2.272 2.272 0 0 1-.635-.695 51.97 51.97 0 0 1-3.62-7.55H59.805c-.845.805-9.53 9.225-13.465 18.465Zm54.115-10.435c8.875-3 14.955-5.235 15.93-6.035 4.41-3.615 18.855 1.7 18.855 1.7l4.875-2.7 4.185-.695 29.87-.315H96.13a51.997 51.997 0 0 0 3.5 7.3c.193.326.481.586.825.745Zm63.9 25.29a17.304 17.304 0 0 1-7.265 1.68c-7.12 0-13.21-4.87-19.57-9.95l-1.19-.95c-1.655.665-3.71 1.375-5.93 2.08a44.163 44.163 0 0 1 7.66 7.85c6.85 9 17.12 13.445 27.465 11.85a26.233 26.233 0 0 0 20.835-16.965c6.895-19.195 40.35-28.08 40.69-28.165l.125.5c-.335.09-33.54 8.905-40.34 27.855a26.761 26.761 0 0 1-21.235 17.29 27.543 27.543 0 0 1-4.235.325c-9.04 0-17.675-4.435-23.705-12.365a43.16 43.16 0 0 0-7.845-8c-3.225 1-6.73 2-9.805 2.82 6.135 3 11.085 7.06 14.2 11.675 1.765 2.61 4.5 5.05 7.97 7.175 16.405 1.5 33.64 2.945 50.805 4.19 9.165-3.675 10.41-9.435 11.825-16.035 1.5-7 3.215-14.94 15.5-21.29 18.855-9.73 31.925-13.645 36.765-14.9H197.43c-1.13.415-3.6 1.325-6.85 2.5-1.765 5.175-8.93 22.9-26.225 30.83Z" class="shade0"/>
    <path fill="#fff" d="M40.35 208.53c-.165 2.5-1.5 14-12 23.595a30.896 30.896 0 0 0 2.1 1.605c4.26-1.31 8.83-2.725 13.56-4.195-.075-2.135.545-4.69 1.865-7.8 3.635-8.535 11.28-16.37 13.205-18.265h-9.295c-.36.055-9.195 1.335-9.435 5.06Zm70.995 32.03a54.054 54.054 0 0 0-7.06-2.725l-17.83 7.37-6.45-.24c12.93 1.57 28.175 3.24 44.695 4.875a45.068 45.068 0 0 0-13.355-9.28Z" class="shade0"/>
    <path fill="#fff" d="M133.795 244.61c-3.155-4.675-8.235-8.76-14.53-11.755-4.38 1.165-7.7 1.97-7.7 1.97l-6.565 2.71a54.778 54.778 0 0 1 6.555 2.575c5.655 2.65 10.375 6 13.905 9.805 5.1.5 10.32 1 15.625 1.5-3.125-2.05-5.63-4.355-7.29-6.805Zm220.985-4.94.215-.3-10.185-9.78c-9.08-.37-18.81-.93-28.68-1.5-5.075-.29-10.175-.585-15.21-.85L312.11 238a360.136 360.136 0 0 0 42.67 1.67ZM166.451 220a14 14 0 0 1-8.235 2.525 19.737 19.737 0 0 1-4.09-.455 73.689 73.689 0 0 1-5-1.25c-5.78 2.445-6.15 3.845-11.96 6.38l-.33.14 1 .78c8.665 6.92 16.11 12.88 26.31 8.215 16.73-7.67 23.885-24.605 25.83-30.135a3527.828 3527.828 0 0 1-17.57 6.36c-1.295 2.7-3.195 5.51-5.955 7.44Z" class="shade0"/>
    <path fill="#fff" d="M166.161 219.6a18.226 18.226 0 0 0 5.575-6.8c-6.385 2.285-12.5 4.45-16.545 5.795-2.16.715-3.88 1.35-5.3 1.93 1.345.375 2.785.735 4.34 1.065 4.625.99 8.64.32 11.93-1.99Zm178.094 9.46-3.5-3.385h-41.47l1.085 1.04c5.22.275 10.5.58 15.785.88 9.49.545 19.06 1.095 28.1 1.465Zm-20.396 20.21 6.64 6.365h.89a57.49 57.49 0 0 0 8.205-3.35c-5.15-.925-10.435-1.955-15.735-3.015Zm30.545-9.095c-2.103.03-4.27.046-6.5.05a349.564 349.564 0 0 1-35.205-1.675l10.5 10.075c5.775 1.155 11.54 2.285 17.13 3.285a41.643 41.643 0 0 0 14.075-11.735Zm-111.459 18.53c16.125.745 31.305 1.185 44.65 1.2-3.455-2.15-8.895-4.74-17.445-7.395-12.615-3.915-21.795 1.275-27.205 6.195Z" class="shade0"/>
    <path fill="#fff" d="M255.696 239.335c13.13-1.7 36 2.925 60.19 7.815l6.39 1.29-22.12-21.235c-23-1.205-44.44-1.81-55 .935-14.85 3.86-20.155 12.03-25.25 19.915-2.075 3.205-4.105 6.33-6.73 9 3.613.227 7.208.443 10.785.65 5.79-6.895 16.345-16.375 31.735-18.37Zm74.804 16.3-6.63-6.365-.915-.185 7.21 6.915 1.215-.38-.88.015Zm14.311-26.045 10.19 9.78.295-.41-9.73-9.34-.755-.03Zm-45.527-3.915h41.445l3.5 3.385.755.03-4-3.845a.253.253 0 0 0-.175-.07h-42.145a.25.25 0 0 0-.235.155.258.258 0 0 0 .06.275l1.115 1.07.765.04-1.085-1.04Zm13.411 12.875-.695-.05.05-.5h.085l-11.19-10.745-.765-.04 22.12 21.235.915.185-10.52-10.085Z" class="shade0"/>
    <path fill="#28192D" d="M32.745 203.22h15.56a20.86 20.86 0 0 1 1.435-.245l.03.245h9.57l.19-.18.175.18H95.77l.24-.08v.08h162.085c.69-.165 1.06-.24 1.08-.245l.05.245h15.095l.18-.18.17.18h87.545c0-.085 0-.165-.04-.25H32.745a.252.252 0 0 0-.205.115l-12.745 19.64c.05.075.1.15.155.22l12.795-19.725Z" class="shade90"/>
    <path fill="#28192D" d="M49.785 203.47h9.3l.255-.25h-9.57l.034.25h-.02Zm124.385 0 23.94-.25H96.035l.095.25h78.04Zm-114.365 0h35.79a1.953 1.953 0 0 1-.06-.17l.235-.08H59.705l.17.185-.07.065Zm-26.92 0h14.29c.41-.1.79-.18 1.13-.25h-15.56L19.95 222.945c.05.075.1.15.155.22l12.78-19.695Z" class="shade90"/>
    <path fill="#28192D" d="m257.094 203.47 1-.25h-60l-.68.25h59.68Zm2.151 0h14.84l.235-.25h-15.095l.045.245-.025.005Zm15.53 0h87.5c0-.08 0-.165-.04-.25H274.67l.175.18-.07.07Z" class="shade90"/>
    <path fill="#A6C2EA" d="m140.115 204.5-4.875 2.7s-14.445-5.315-18.855-1.7c-1 .8-7.055 3.035-15.93 6.035 2.05 1.08 6.75-.175 11.69-1.5 5.39-1.445 10.96-2.935 14.215-1.74 2.31.845 4.245 2.23 6.5 3.83 3.78 2.7 8.36 5.975 17.05 8.415 1.42-.58 3.14-1.215 5.3-1.93 4.025-1.345 10.16-3.5 16.545-5.795a29.895 29.895 0 0 0 2.72-8.355l.5.07a30.516 30.516 0 0 1-2.545 8.045c6.265-2.245 12.7-4.585 17.57-6.36.385-1.095.565-1.75.575-1.785l.5.13c0 .035-.155.55-.455 1.435 3.25-1.185 5.72-2.095 6.85-2.5h-23.3l-29.87.315-4.185.69Zm6.36 3.75c.04.055 3.655 5.5 7.31 5.78a3.873 3.873 0 0 0 3.24-1.425c4.47-4.9 4.255-6.68 4.25-6.7l.5-.095c.04.195.27 2.045-4.37 7.13a4.394 4.394 0 0 1-3.31 1.605h-.34c-3.9-.31-7.535-5.77-7.685-6l.405-.295Zm-91.42 29.965c5.03 1.16 8.745-.885 13.445-3.47 4.7-2.585 10.615-5.84 20-7.095a56.796 56.796 0 0 1 27 3.045c1.577.59 3.09 1.244 4.54 1.96 3.075-.825 6.58-1.81 9.805-2.82-14.605-11.39-33.43-10.195-47.8-9.285a18.855 18.855 0 0 1-7.14-.705c-9.935 3.155-20.5 6.465-30.405 9.54a7.299 7.299 0 0 0 .755 3.225c1.33 2.585 4.44 4.39 9.8 5.605Z" class="shade50"/>
    <path fill="#A6C2EA" d="M75.5 244.405a38.579 38.579 0 0 1 7.635-6.83c4.57-2.96 13-2.87 21.875-.04l6.565-2.71s3.32-.805 7.7-1.97a50.887 50.887 0 0 0-3.97-1.69 56.296 56.296 0 0 0-26.74-3c-9.28 1.245-15.12 4.455-19.81 7.035-4.8 2.64-8.585 4.725-13.805 3.5-5.5-1.27-8.73-3.135-10.12-5.865a7.742 7.742 0 0 1-.805-3.3c-4.73 1.47-9.3 2.885-13.56 4.195a35.86 35.86 0 0 0 13.805 6.03c6.19 1.265 17.12 2.885 31.23 4.645Zm31.92-28.555c12.5-1.555 21.5 5.19 29.435 11.5l.33-.14c5.81-2.535 6.18-3.935 11.96-6.38-8.38-2.435-12.875-5.65-16.595-8.315-2.21-1.58-4.115-2.94-6.365-3.765-3.1-1.145-8.595.33-13.91 1.75-5.315 1.42-10.345 2.765-12.425 1.215-2.68.905-5.6 1.87-8.706 2.885 3.48 1.74 8.926 2.16 16.276 1.25Z" class="shade50"/>
    <path fill="#A6C2EA" d="M104.285 237.835c-8.5-2.62-16.53-2.665-20.885.16a37.069 37.069 0 0 0-7.305 6.5l3.91.5 6.45.24 17.83-7.4ZM82 220.055c14.55-.925 33.64-2.14 48.415 9.595 2.22-.705 4.275-1.415 5.93-2.08-7.785-6.195-16.66-12.74-28.85-11.225-7.74.96-13.425.445-17-1.53-4.6 1.5-9.585 3.11-14.764 4.765 2.05.494 4.168.654 6.27.475Zm115.43-16.585.68-.25-23.94.25h23.26ZM39.85 208.5c-.16 2.5-1.5 13.845-11.885 23.305.125.11.255.215.39.325 10.5-9.585 11.83-21.075 12-23.595.24-3.725 9.075-5 9.435-5.06h-2.615c-2.875.69-7.14 2.19-7.325 5.025Zm9.89-5.5c-.09 0-.64.085-1.435.245h1.465l-.03-.245Z" class="shade50"/>
    <path fill="#A6C2EA" d="m49.785 203.47-.035-.25h-1.445c-.34.07-.72.15-1.13.25h2.61Zm61.77 36.64a54.778 54.778 0 0 0-6.555-2.575l-.715.3a54.054 54.054 0 0 1 7.06 2.725 45.073 45.073 0 0 1 13.355 9.28l.76.075c-3.53-3.79-8.25-7.155-13.905-9.805Zm-28.43-2.535a38.597 38.597 0 0 0-7.625 6.83l.605.08a37.031 37.031 0 0 1 7.305-6.5c4.355-2.825 12.365-2.78 20.885-.16l.715-.3c-8.88-2.82-17.315-2.91-21.885.05Zm51.085 6.755c-3.115-4.615-8.065-8.665-14.2-11.675l-.745.2c6.295 3 11.375 7.08 14.53 11.755 1.66 2.45 4.165 4.755 7.29 6.795l1.095.1c-3.455-2.125-6.18-4.565-7.97-7.175Zm-88.33-22.595c-1.32 3.11-1.94 5.665-1.865 7.8l.5-.15c-.04-2.035.565-4.475 1.83-7.45 3.935-9.24 12.62-17.66 13.465-18.465h-.72c-1.93 1.895-9.59 9.73-13.21 18.265Zm158.929 17.925c-1.415 6.6-2.66 12.36-11.825 16.035l1.09.075c8.6-3.815 9.88-9.755 11.225-16 1.5-6.895 3.165-14.705 15.26-20.95 23.665-12.215 38.165-15.235 38.685-15.345h-2.15c-4.84 1.255-17.91 5.17-36.765 14.9-12.305 6.345-14.01 14.285-15.52 21.285ZM259.176 203s-.39.08-1.08.245h1.13l-.05-.245Zm-199.646.04-.19.18h.365l-.175-.18Zm.275.43.07-.065-.17-.185h-.365l-.255.25h.72Z" class="shade50"/>
    <path fill="#A6C2EA" d="m259.245 203.47-.045-.245h-1.13l-1 .25 2.175-.005ZM54.94 238.7c5.22 1.205 9-.88 13.805-3.5 4.69-2.58 10.53-5.79 19.81-7.035a56.295 56.295 0 0 1 26.74 3c1.37.517 2.693 1.08 3.97 1.69l.745-.2a48.854 48.854 0 0 0-4.54-1.96 56.784 56.784 0 0 0-27-3.045c-9.375 1.255-15.26 4.5-20 7.095-4.74 2.595-8.415 4.63-13.445 3.47-5.36-1.24-8.47-3-9.79-5.605a7.302 7.302 0 0 1-.735-3.225l-.5.15a7.74 7.74 0 0 0 .805 3.3c1.405 2.73 4.62 4.595 10.135 5.865Zm82.719-.875c6.03 7.93 14.665 12.365 23.705 12.365a27.543 27.543 0 0 0 4.235-.325 26.77 26.77 0 0 0 12.997-5.723 26.768 26.768 0 0 0 8.238-11.567c6.8-18.95 40-27.765 40.34-27.855l-.125-.5c-.34.085-33.795 8.97-40.69 28.165a26.231 26.231 0 0 1-20.835 16.965c-10.345 1.595-20.615-2.835-27.465-11.85a44.128 44.128 0 0 0-7.66-7.85l-.585.185a43.136 43.136 0 0 1 7.845 7.99ZM70.885 216.5c-3.35-4.525-.64-11.865-.615-11.935l-.465-.18c-.12.31-2.835 7.665.675 12.41a8.676 8.676 0 0 0 4.395 3.045l.85-.265a8.53 8.53 0 0 1-4.84-3.075ZM82 220.55c14.37-.91 33.195-2.105 47.8 9.285l.585-.185c-14.775-11.735-33.865-10.5-48.415-9.595a19.62 19.62 0 0 1-6.26-.475l-.85.265c2.313.69 4.737.929 7.14.705Zm6.2-8.27c-2.61-3.345-1-7.665-1-7.71l-.465-.18c-.07.185-1.74 4.62 1.04 8.19a8.66 8.66 0 0 0 2.69 2.235l.655-.215a8.416 8.416 0 0 1-2.92-2.32Z" class="shade50"/>
    <path fill="#A6C2EA" d="M164.146 236.335c-10.2 4.67-17.665-1.295-26.31-8.205l-1-.78-.5.22 1.165.93c6.36 5.08 12.45 9.95 19.57 9.95a17.304 17.304 0 0 0 7.265-1.68c17.295-7.93 24.46-25.655 26.225-30.81l-.605.22c-1.925 5.55-9.08 22.485-25.81 30.155Z" class="shade50"/>
    <path fill="#A6C2EA" d="m191.036 204.545-.5-.13c0 .035-.19.69-.575 1.785l.605-.22c.315-.885.46-1.4.47-1.435Zm-83.536 11.8c12.19-1.5 21.065 5.03 28.85 11.225l.5-.22c-7.91-6.31-16.925-13.055-29.435-11.5-7.35.91-12.795.5-16.275-1.25l-.655.215c3.57 1.975 9.255 2.49 17.015 1.53Zm46.625 5.735c1.343.293 2.714.446 4.09.455A13.998 13.998 0 0 0 166.45 220c2.76-1.94 4.66-4.75 5.955-7.45l-.67.24a18.235 18.235 0 0 1-5.575 6.8c-3.29 2.31-7.305 3-11.93 2-1.555-.33-3-.69-4.34-1.065l-.745.305c1.525.445 3.18.865 4.98 1.25ZM99.85 211.715l.605-.2a1.875 1.875 0 0 1-.805-.745 51.943 51.943 0 0 1-3.5-7.3h-.535a51.99 51.99 0 0 0 3.62 7.55c.155.272.365.508.615.695ZM96 203.14l-.24.08h.265c-.025-.045-.025-.075-.025-.08Zm-.405.33h.535l-.095-.25h-.265l-.235.08s.02.065.06.17Z" class="shade50"/>
    <path fill="#A6C2EA" d="M112.275 210.5c5.315-1.42 10.81-2.895 13.91-1.75 2.25.825 4.155 2.185 6.365 3.765 3.72 2.665 8.215 5.88 16.595 8.315l.745-.305c-8.69-2.44-13.27-5.715-17.05-8.415-2.235-1.6-4.17-3-6.5-3.83-3.255-1.195-8.825.295-14.215 1.74-4.94 1.32-9.64 2.575-11.69 1.5l-.605.2c2.1 1.545 7.135.2 12.445-1.22Zm62.675-6-.5-.07a29.863 29.863 0 0 1-2.72 8.355l.67-.24a30.49 30.49 0 0 0 2.55-8.045Zm-21.204 10h.34a4.406 4.406 0 0 0 3.31-1.605c4.64-5.085 4.41-6.935 4.37-7.13l-.5.095s.22 1.8-4.25 6.7a3.873 3.873 0 0 1-3.24 1.425c-3.655-.285-7.27-5.725-7.31-5.78l-.415.275c.16.26 3.795 5.72 7.695 6.02Zm191.063 15.09-.555-.53c-9.04-.37-18.61-.92-28.1-1.465-5.265-.3-10.565-.605-15.785-.88l.55.53c5.035.265 10.135.56 15.21.85 9.87.565 19.6 1.125 28.68 1.495Zm15.131.41.19-.5c-4.775-.05-9.855-.195-15.12-.405l.55.53c5.03.195 9.85.34 14.38.375Zm-114.765-1.86c10.54-2.745 32-2.14 55-.935l-.55-.53c-22.805-1.185-44.045-1.76-54.56 1C230 231.58 224.41 240.19 219.5 247.785c-2.14 3.3-4.225 6.5-7 9.235l.67.045c2.625-2.68 4.655-5.805 6.73-9 5.1-7.895 10.405-16.065 25.275-19.925Z" class="shade50"/>
    <path fill="#A6C2EA" d="m344.811 229.59.75.03-.55-.53-.755-.03.555.53Zm-43.891-2.345-.55-.53-.765-.04.55.53.765.04Zm39.399 24.665c-5.59-1-11.355-2.13-17.13-3.285l.67.645c5.3 1.06 10.585 2.09 15.725 3l.735-.36Zm-84.558-12.075c13.045-1.695 35.865 2.92 60.025 7.81l7.16 1.44-.67-.645-6.39-1.29c-24.2-4.89-47.06-9.5-60.19-7.815-15.39 2-25.945 11.475-31.735 18.38l.62.035c5.785-6.81 16.155-15.97 31.18-17.915Z" class="shade50"/>
    <path fill="#A6C2EA" d="m323.19 248.625-.915-.185.67.645.915.185-.67-.645Zm-53.04 3.875c8.55 2.655 14 5.245 17.445 7.395h1c-3.455-2.255-9.09-5-18.28-7.87-13.13-4.075-22.6 1.535-28.055 6.635l.705.035c5.39-4.91 14.57-10.1 27.185-6.195Zm.559-39.81c.9 3.145 4.445 5.395 10.535 6.685 3.5.74 9.03 1.04 15.78 1.04 19.045 0 47.595-2.4 65.76-4.135 0-.17 0-.34.03-.5-24.56 2.35-68.215 5.925-81.465 3.115-5.895-1.255-9.315-3.385-10.16-6.335-1.165-4.065 3-8.5 3.585-9.085h-.69c-1.205 1.3-4.495 5.315-3.375 9.215Zm3.791-9.65-.18.18h.35l-.17-.18Zm.276.43.07-.07-.175-.18h-.35l-.235.25h.69Zm79.628 36.705c.125-.17.255-.335.375-.5a360.14 360.14 0 0 1-42.67-1.675l.585.56c11.7 1.15 23.45 1.709 35.205 1.675 2.237-.007 4.405-.027 6.505-.06Z" class="shade50"/>
    <path fill="#A6C2EA" d="m312.025 238-.05.5.72.07-.585-.57h-.085Z" class="shade50"/>
    <path fill="#fff" d="M49.27 245.25c2.26 1.455 4.595 2.965 7.175 4.5 9.375 5.56 12.96 1.5 17.92-4.08l.785-.88-28.235-1.05c.77.487 1.555.99 2.355 1.51Zm-18.815-11.52a36.825 36.825 0 0 1-2.1-1.605 42.28 42.28 0 0 1-4.69 3.695l6.79-2.09Zm160.26 22.77c.81-.26 1.56-.535 2.27-.815-17.165-1.245-34.4-2.68-50.805-4.19a51.6 51.6 0 0 0 14.62 5.915c11.335 2.79 23.38 2.47 33.915-.91Zm-168.78-20.15a42.139 42.139 0 0 0 6.03-4.55 46.518 46.518 0 0 1-7.86-8.635L9 240.315c3.26-1 7.705-2.35 12.95-3.96l-.015-.005Zm333.359 3.31-.3-.29-.215.3.515-.01Z" class="shade0"/>
    <path fill="#fff" d="M355.294 239.66h.71l-.715-.69-.295.41.3.28Zm-23.915 15.975-1.215.38.05.05c.047.045.11.07.175.07h41.385c-2.815 0-5.855-.2-9.08-.5h-31.315ZM8.605 240.43l11.345-17.5a3.466 3.466 0 0 1-.155-.22l-11.56 17.83.37-.11Zm11.5-17.265a3.466 3.466 0 0 1-.154-.22l-11.346 17.5.37-.115 11.13-17.165ZM3.075 242.11l4.045.15 1.115-1.72-5.16 1.57Zm72.725 2.7 4.205.155-3.91-.5-.295.345Zm-52.55-3.945a20.536 20.536 0 0 0-2.435 1.905l25.11.93c-8.425-5.31-14.585-8.2-22.675-2.835Z" class="shade0"/>
    <path fill="#fff" d="m46.915 243.735 28.235 1.05.34-.38c-14.1-1.76-25.03-3.38-31.23-4.645a35.86 35.86 0 0 1-13.805-6.03l-6.79 2.09c-.475.32-.965.64-1.465.955a39.104 39.104 0 0 0-7.155 5.78l5.06.185A21.362 21.362 0 0 1 23 240.445c8.53-5.65 15.24-2.23 23.915 3.29Zm-24.99-7.38c-5.245 1.61-9.69 2.965-12.95 3.96L7.7 242.28l6.67.25a39.969 39.969 0 0 1 7.555-6.175Zm-13.32 4.075-.37.11-1.115 1.72h.29l1.195-1.83Z" class="shade0"/>
    <path fill="#fff" d="m7.7 242.28 1.3-1.965-.37.115-1.195 1.84.265.01Zm20.655-10.155c-.135-.11-.265-.215-.39-.325a42.139 42.139 0 0 1-6.03 4.55l1.74-.535a42.428 42.428 0 0 0 4.68-3.69Zm-6.155 4.65c.5-.315 1-.635 1.465-.955l-1.74.535a39.969 39.969 0 0 0-7.555 6.175l.675.025a39.059 39.059 0 0 1 7.155-5.78Zm52.165 8.89c-4.96 5.595-8.545 9.64-17.92 4.08-2.58-1.53-4.915-3.04-7.175-4.5-.8-.52-1.585-1.02-2.355-1.5l-1-.035c1 .625 2 1.285 3.075 1.97 2.26 1.46 4.6 2.97 7.19 4.5 9.73 5.775 13.62 1.385 18.55-4.17l1.06-1.19-.65-.025-.775.87Zm1.135-1.26-.34.38.65.025.295-.325-.605-.08Zm-52.5-3.96a21.33 21.33 0 0 0-2.87 2.295l.71.03a20.33 20.33 0 0 1 2.435-1.905c8.09-5.345 14.265-2.5 22.675 2.835l1 .035c-8.71-5.52-15.42-8.94-23.95-3.29Zm195.654 24.75.44.235a50.598 50.598 0 0 1 5.5-7.68l-.62-.035a50.134 50.134 0 0 0-5.32 7.48Zm153.281-9.56h-9.24c3.225.3 6.265.5 9.08.5h.78a.245.245 0 0 0 .23-.155.251.251 0 0 0-.055-.275l-.07-.065h-.725v-.005ZM293.5 265.38l.5-.135a2.372 2.372 0 0 0-.15-.365h-.575c.09.16.165.327.225.5Zm-50.555-6.675-.705-.035a32.884 32.884 0 0 0-5.445 6.5l.3.175h.18a33.074 33.074 0 0 1 5.67-6.64Zm45.629 1.2h-1c3.12 1.95 4.615 3.535 5.305 4.5h.62c-.565-.94-1.915-2.525-4.925-4.5Z" class="shade0"/>
    <path fill="#fff" d="M293.074 264.64c.06.09.11.175.155.25h.575a2.41 2.41 0 0 0-.135-.25h-.595Zm-55.843.8a.69.69 0 0 1 .045-.085h-.18l.135.085Zm55.669-1.045c.065.085.125.17.175.245h.595a2.2 2.2 0 0 0-.15-.245h-.62Zm61.504-24.22 1.405-.025-.5-.5h-.5c-.15.19-.28.35-.405.525Z" class="shade0"/>
    <path fill="#fff" d="M355.81 240.15h.705l-.5-.5h-.71l.505.5ZM104.09 240a16.39 16.39 0 0 0 9.6-3.105l29.675-21.415a.701.701 0 0 0 .004-1.147.708.708 0 0 0-.419-.133H79.29l6.88 25.8h17.92Z" class="shade0"/>
    <path fill="#28192D" d="M104.085 240.24H86.17a.25.25 0 0 1-.24-.185l-6.88-25.8a.249.249 0 0 1 .131-.29.24.24 0 0 1 .109-.025h63.66a.958.958 0 0 1 .91.661.955.955 0 0 1-.35 1.069l-29.675 21.42a16.565 16.565 0 0 1-9.75 3.15Zm-17.72-.5h17.72a16.1 16.1 0 0 0 9.46-3.055l29.675-21.42a.455.455 0 0 0-.27-.825H79.615l6.75 25.3Z" class="shade90"/>
    <path fill="#fff" d="M100.89 240a16.413 16.413 0 0 0 9.61-3.115l29.675-21.415a.708.708 0 0 0 .262-.792.703.703 0 0 0-.677-.488H76.095L83 240h17.89Z" class="shade0"/>
    <path fill="#28192D" d="M100.89 240.24H83a.246.246 0 0 1-.154-.051.246.246 0 0 1-.091-.134l-6.88-25.8a.25.25 0 0 1 .245-.315h63.635a.958.958 0 0 1 .91.661.95.95 0 0 1-.35 1.069l-29.675 21.42a16.572 16.572 0 0 1-9.75 3.15Zm-17.725-.5h17.725a16.092 16.092 0 0 0 9.455-3.055L140 215.265a.442.442 0 0 0 .17-.5.45.45 0 0 0-.435-.315H76.42l6.745 25.29Z" class="shade90"/>
    <path fill="#A6C2EA" d="M104.925 235.4h3.27a.45.45 0 0 0 .265-.085l21.775-15.715a.453.453 0 0 0-.265-.825H88.945L93.38 235.4h11.545Z" class="shade50"/>
    <path fill="#fff" d="M104.67 240h-78.8a3.606 3.606 0 0 1-3.575-2.665l-15.35-61.42c-.5-2.115 1.235-4.12 3.575-4.12h78.8a3.604 3.604 0 0 1 3.575 2.66l15.35 61.41C108.75 238 107 240 104.67 240Z" class="shade0"/>
    <path fill="#28192D" d="M104.67 240.24h-78.8a3.837 3.837 0 0 1-3.82-2.855L6.7 176a3.435 3.435 0 0 1 .67-2.945 3.972 3.972 0 0 1 3.15-1.5h78.8a3.844 3.844 0 0 1 3.82 2.855l15.36 61.395a3.446 3.446 0 0 1-.665 2.95 3.995 3.995 0 0 1-3.165 1.485ZM10.5 172.045a3.483 3.483 0 0 0-1.53.328 3.486 3.486 0 0 0-1.23.967 2.95 2.95 0 0 0-.57 2.5l15.365 61.425a3.389 3.389 0 0 0 3.335 2.5h78.8a3.492 3.492 0 0 0 2.76-1.295 2.948 2.948 0 0 0 .575-2.5l-15.35-61.47a3.384 3.384 0 0 0-3.335-2.5l-78.82.045Z" class="shade90"/>
    <path fill="#fff" d="M102.76 240H23.955a3.613 3.613 0 0 1-3.575-2.665l-15.35-61.42c-.5-2.115 1.235-4.12 3.575-4.12H87.41a3.61 3.61 0 0 1 3.575 2.66l15.35 61.41c.5 2.135-1.24 4.135-3.575 4.135Z" class="shade0"/>
    <path fill="#28192D" d="M102.76 240.24H23.955a3.826 3.826 0 0 1-3.815-2.855L4.79 176a3.433 3.433 0 0 1 .665-2.945 3.973 3.973 0 0 1 3.15-1.5H87.41a3.837 3.837 0 0 1 3.815 2.855l15.35 61.405a3.446 3.446 0 0 1-.665 2.95 3.975 3.975 0 0 1-3.15 1.475ZM8.605 172.045a3.474 3.474 0 0 0-2.76 1.295 2.95 2.95 0 0 0-.57 2.5l15.35 61.405a3.38 3.38 0 0 0 3.33 2.5h78.805a3.498 3.498 0 0 0 2.755-1.295 2.939 2.939 0 0 0 .575-2.5L90.74 174.5a3.38 3.38 0 0 0-3.33-2.5l-78.805.045Z" class="shade90"/>
    <path fill="#ECA3B5" d="M51.885 211.825a5.665 5.665 0 1 0 0-11.33 5.665 5.665 0 0 0 0 11.33Z" class="shade40"/>
    <path fill="#fff" d="M128.85 221.755h-21.785v.5h21.785v-.5Zm-8.125 5.575H110.21v.5h10.515v-.5Zm13.655-18.055a9.337 9.337 0 0 0-5.71-1.855c-3.245.135-7.42-1.53-8.765-1.58-1.345-.05-1.775 2.745.93 3.895s10.06 1.16 10.06 1.16l3.485-1.62Z" class="shade0"/>
    <path fill="#28192D" d="M130.895 211.145c-.3 0-7.44 0-10.16-1.18-1.76-.75-2.32-2.205-2.09-3.24a1.3 1.3 0 0 1 1.27-1.135c.818.106 1.626.281 2.415.525 1.81.5 4.29 1.145 6.33 1.055a9.434 9.434 0 0 1 5.88 1.91.263.263 0 0 1 .09.225.255.255 0 0 1-.14.195l-3.5 1.62a.188.188 0 0 1-.095.025Zm-11-5.055a.821.821 0 0 0-.74.74c-.185.84.295 2.035 1.8 2.675 2.5 1.07 9.23 1.135 9.905 1.14l3.05-1.42a9.035 9.035 0 0 0-5.21-1.555c-2.12.08-4.64-.58-6.5-1.07a14.037 14.037 0 0 0-2.3-.5l-.005-.01Z" class="shade90"/>
    <path fill="#A6C2EA" d="M235.499 203.22s13.765 25.305 24.92 27.22c11.155 1.915 28.5-7.82 30.055-15.585 1.555-7.765 5.23-9 5.23-9l29.92-2.145-91.345-.475" class="shade50" opacity=".24"/>
    <path fill="#28192D" d="M132.864 84.785s-6.54 4.09-7.63 13.2c-1.09 9.11 5 18.69 4.615 24.35a70.69 70.69 0 0 1-.85 8.135h6.105v-4.865l2.555 3.265s2.615.435 14.15-4.03 18.725-11.915 20.03-15.915l1.305-4s-3.7 1-6.855-4.895c-3.155-5.895-14.91-27.22-33.425-15.245Z" class="shade90"/>
    <path fill="#fff" d="m142.9 116.57 3.335 14.775-.235.755a7.588 7.588 0 0 0 7.125 9.75 7.596 7.596 0 0 0 6.84-4l5.75-10.705s-8.915-5.5-13.39-17.5c-4.475-12-11.135-5.375-9.425 6.925Z" class="shade0"/>
    <path fill="#28192D" d="M153.295 142.1h-.16a7.846 7.846 0 0 1-7.36-10.075l.205-.69-3.325-14.71c-.83-5.94.335-12.59 3.715-13.445 2.215-.56 4.475 1.775 6.205 6.41 4.39 11.765 13.195 17.305 13.285 17.36a.248.248 0 0 1 .09.33l-5.75 10.705a7.808 7.808 0 0 1-6.905 4.115Zm-10.15-25.575 3.355 14.765a.205.205 0 0 1 0 .125l-.225.755a7.344 7.344 0 0 0 13.5 5.56l5.64-10.5c-1.345-.9-9.21-6.535-13.295-17.5-1.605-4.305-3.705-6.59-5.61-6.1-2.455.63-4.375 5.615-3.365 12.895Z" class="shade90"/>
    <path fill="#28192D" d="M149.826 123.025c1.29-2.35 2.955-4.765 3.63-7.385a9.603 9.603 0 0 0 .235-2.585c-.5-1.03-.975-2.115-1.405-3.265-4.255-11.405-10.605-5.125-9 6.575l3.11 13.765a63.61 63.61 0 0 1 3.43-7.105Z" class="shade90"/>
    <path fill="#F6D4A0" d="M173.566 112.31c-1.71 0-4.095-.64-6.81-3.205-5.315-5-9.165-15-9.205-15.09l.465-.175c.04.1 3.855 9.97 9.085 14.9 5.115 4.83 8.79 2.6 8.945 2.5l.27.425a5.59 5.59 0 0 1-2.75.645Zm-7.232 3.895c-6.405-3.705-9.94-10.705-9.975-10.76l.445-.22c.035.065 3.5 6.91 9.78 10.55l-.25.43Z" class="shade10"/>
    <path fill="#fff" d="M134.925 88.225s-4.335 4.835-2.06 15 4.635 14.935 11.82 13.455c7.185-1.48 10.885-8.925 7.835-20.47-3.05-11.545-11.825-11.075-17.595-7.985Z" class="shade0"/>
    <path fill="#28192D" d="M142.329 117.2c-5.5 0-7.69-4.895-9.71-13.915-2.275-10.18 1.94-15 2.12-15.23l.065-.05c1.85-1 6.635-3.075 11.205-1.085 3.235 1.41 5.5 4.5 6.755 9.23 1.735 6.58 1.39 12.09-1 15.945a10.572 10.572 0 0 1-7.035 4.84 12.1 12.1 0 0 1-2.4.265Zm-7.245-28.78c-.355.435-4.1 5.26-1.975 14.755 2.265 10.13 4.57 14.7 11.5 13.265a10.058 10.058 0 0 0 6.71-4.61c2.31-3.73 2.635-9.11.935-15.555-1.205-4.56-3.38-7.555-6.47-8.9-4.285-1.875-8.89.085-10.7 1.045Z" class="shade90"/>
    <path fill="#fff" d="M153.171 104.5c1.355-.325 3.5-1.335 3.925-4.5.65-4.715-4.645-4.28-5.5-1.665" class="shade0"/>
    <path fill="#28192D" d="M153.169 104.73a.251.251 0 0 1-.28-.22.254.254 0 0 1 .052-.186.254.254 0 0 1 .168-.094c1.5-.35 3.335-1.38 3.735-4.28.245-1.76-.365-2.945-1.665-3.25-1.3-.305-2.91.335-3.365 1.69a.243.243 0 0 1-.315.16.255.255 0 0 1-.16-.315c.5-1.455 2.335-2.4 3.95-2 1.615.4 2.33 1.79 2.05 3.805-.46 3.35-2.775 4.385-4.115 4.705l-.055-.015Z" class="shade90"/>
    <path fill="#fff" d="M154.5 97.84s1.625 2.28.9 4.17Z" class="shade0"/>
    <path fill="#28192D" d="M155.38 102.26h-.09a.254.254 0 0 1-.141-.132.248.248 0 0 1-.004-.193c.67-1.74-.855-3.91-.87-3.935a.241.241 0 0 1-.043-.185.249.249 0 0 1 .103-.16.248.248 0 0 1 .345.055c.07.1 1.7 2.41.93 4.405a.24.24 0 0 1-.23.145Zm-19.385 2.705c.331 0 .6-.336.6-.75s-.269-.75-.6-.75c-.332 0-.6.336-.6.75s.268.75.6.75Zm9.335-1.2c.332 0 .6-.336.6-.75 0-.415-.268-.75-.6-.75-.331 0-.6.335-.6.75 0 .414.269.75.6.75Z" class="shade90"/>
    <path fill="#fff" d="M139.21 103.765s.57 1.825-.245 3.295a4.148 4.148 0 0 1-.63.875.771.771 0 0 0-.202.698.781.781 0 0 0 .462.562 3.762 3.762 0 0 0 2.205.34" class="shade0"/>
    <path fill="#28192D" d="M140.269 109.845a4.604 4.604 0 0 1-1.775-.42 1.001 1.001 0 0 1-.605-.735 1.063 1.063 0 0 1 .265-.925c.231-.251.43-.529.59-.83.75-1.355.23-3.08.225-3.095a.256.256 0 0 1 .165-.315.249.249 0 0 1 .31.165c.025.08.595 1.945-.265 3.5a4.56 4.56 0 0 1-.66.93.537.537 0 0 0-.14.5.51.51 0 0 0 .31.375c.634.317 1.35.431 2.05.325a.252.252 0 0 1 .305.185.232.232 0 0 1 .003.098.256.256 0 0 1-.193.202 2.389 2.389 0 0 1-.585.04Z" class="shade90"/>
    <path fill="#ECA3B5" d="M141.755 112.96s.15.5 1.895-.15.685-2.17.685-2.17-1.295-.62-1.93-.465c-.635.155-.54.65-.54.65s-.85-.28-1.135.285c-.285.565.65 1.23.65 1.23l.375.62Z" class="shade40"/>
    <path fill="#28192D" d="M140.571 112.84a.253.253 0 0 1-.117-.472.224.224 0 0 1 .092-.028c.035 0 3.22-.34 3.895-2.5a.231.231 0 0 1 .046-.086.25.25 0 0 1 .172-.087.233.233 0 0 1 .097.013.25.25 0 0 1 .165.31c-.775 2.47-4.18 2.83-4.325 2.84l-.025.01Zm-2.272-26.495s-2.905 5.225-4.065 9.725a49.762 49.762 0 0 0-1.37 8.85s-4.435-2.9-2.55-11.1c1.885-8.2 7.985-7.475 7.985-7.475Z" class="shade90"/>
    <path fill="#28192D" d="M136.285 87.67s1.905 4.68 7.73 8.27 9.035 1.36 9.035 1.36 5-3.5-2.45-8.815a12.935 12.935 0 0 0-14.315-.815Z" class="shade90"/>
    <path fill="#fff" d="M152.33 95.54c-5.9-.275-12.765-6.23-13.055-6.5l.33-.375c.07.06 7.025 6.095 12.745 6.36l-.02.515Zm-18.805 3.845s2.08-.79 3.745-.59Z" class="shade0"/>
    <path fill="#28192D" d="M133.526 99.635a.253.253 0 0 1-.254-.395.252.252 0 0 1 .164-.105 9.568 9.568 0 0 1 3.865-.6.255.255 0 0 1 .168.095.26.26 0 0 1 .052.185.258.258 0 0 1-.095.168.256.256 0 0 1-.185.052c-1.585-.19-3.605.565-3.625.57a.194.194 0 0 1-.09.03Z" class="shade90"/>
    <path fill="#fff" d="M143.08 98.23s2.475-1.18 4.915 0Z" class="shade0"/>
    <path fill="#28192D" d="M143.081 98.5a.244.244 0 0 1-.225-.145.246.246 0 0 1 .037-.276.248.248 0 0 1 .078-.06 6.382 6.382 0 0 1 5.135 0 .256.256 0 0 1-.22.455 5.93 5.93 0 0 0-4.7 0 .272.272 0 0 1-.105.026Z" class="shade90"/>
    <path fill="#fff" d="M203.155 170.09s3.62 15.11 4 20.96c.38 5.85-23.79 17.795-45 20.96-21.21 3.165-33.745 5.305-25.705-2.68 8.04-7.985 45.945-24 45.945-24l-1.705-6.705 22.465-8.535Z" class="shade0"/>
    <path fill="#28192D" d="M138.775 215.095c-2.7 0-4.385-.395-4.87-1.36-.485-.965.245-2.47 2.375-4.58 7.685-7.63 42.85-22.71 45.825-24l-1.65-6.5a.25.25 0 0 1 .15-.295l22.46-8.53a.248.248 0 0 1 .205 0 .226.226 0 0 1 .125.16c.035.155 3.635 15.2 4 21 .395 6.295-24.95 18.195-45.195 21.225l-2.235.335c-9.33 1.45-16.675 2.545-21.19 2.545ZM181 178.775l1.65 6.5a.255.255 0 0 1-.145.295c-.38.16-37.95 16.095-45.865 23.955-1.9 1.885-2.67 3.23-2.285 4 1.13 2.25 11.365.715 25.535-1.41l2.235-.335c21.6-3.23 45.12-15.095 44.77-20.7-.33-5.325-3.42-18.56-3.915-20.64L181 178.775Z" class="shade90"/>
    <path fill="#A6C2EA" d="M169.686 127.305s13.345 2 23.765 13.525 13.34 32.725 13.34 32.725-10.05 8.59-18.55 8.775l-8.5.18-10.055-55.205Z" class="shade50"/>
    <path fill="#28192D" d="M179.74 182.76a.25.25 0 0 1-.25-.205L171.74 140a.25.25 0 0 1 .2-.29.254.254 0 0 1 .29.2l7.715 42.36 8.285-.175c7.855-.17 17.2-7.72 18.295-8.63-.275-1.835-3.45-21.605-13.265-32.45-10.24-11.32-23.5-13.43-23.615-13.45a.255.255 0 0 1-.213-.288.253.253 0 0 1 .288-.212c.135 0 13.555 2.155 23.915 13.605 10.36 11.45 13.365 32.635 13.405 32.83a.258.258 0 0 1-.085.225c-.1.085-10.22 8.65-18.71 8.835l-8.5.18-.005.02Z" class="shade90"/>
    <path fill="#fff" d="M142.39 214.07c-.5 1.635-1.695 3.565-4.5 4.94-5.845 2.875-15.395 5.845-18.735.555s.88-8.21 10.065-10.385a20.678 20.678 0 0 1 8.28-.43" class="shade0"/>
    <path fill="#28192D" d="M125.595 222.725c-2.865 0-5.275-.86-6.64-3.025-1.185-1.87-1.47-3.5-.885-4.925 1-2.42 4.5-4.28 11.1-5.84a21.132 21.132 0 0 1 8.375-.43.258.258 0 0 1 .162.103.257.257 0 0 1 .043.187.253.253 0 0 1-.29.205 20.486 20.486 0 0 0-8.175.425c-6.41 1.5-9.83 3.28-10.75 5.54-.5 1.28-.25 2.745.84 4.47 1.435 2.265 4.19 3.165 8.185 2.665s8.155-2.295 10.23-3.315c2.27-1.12 3.74-2.73 4.365-4.79a.25.25 0 0 1 .475.145c-.655 2.165-2.25 3.93-4.62 5.095-4.055 1.995-8.635 3.49-12.415 3.49Z" class="shade90"/>
    <path fill="#fff" d="M131.345 221.5c-2.12 1.08-10.97 5.43-13.77 5.04-2.615-.365 3.97-4.22 8.17-5.88" class="shade0"/>
    <path fill="#28192D" d="M117.955 226.8c-.139 0-.277-.008-.415-.025-.62-.09-.78-.37-.805-.59-.17-1.39 5.805-4.54 8.92-5.77a.25.25 0 0 1 .18.465c-3.955 1.56-8.7 4.45-8.605 5.245 0 .05.125.12.38.155 2.87.39 12.53-4.465 13.625-5a.25.25 0 0 1 .225.445c-1.725.86-10.18 5.075-13.505 5.075Z" class="shade90"/>
    <path fill="#fff" d="M125.5 220.73c-3.165 1.565-10.565 5.045-13.285 4.665-3.115-.435 5.75-5.76 10.055-7.15" class="shade0"/>
    <path fill="#28192D" d="M112.665 225.675a3.802 3.802 0 0 1-.5-.03c-.675-.095-.84-.41-.865-.66-.145-1.68 7.37-5.845 10.88-7a.26.26 0 0 1 .327.172.262.262 0 0 1-.172.328c-4.035 1.3-10.63 5.345-10.535 6.455 0 .14.335.195.435.21 2.665.37 10.075-3.125 13.14-4.645a.256.256 0 0 1 .094-.028.247.247 0 0 1 .241.138.25.25 0 0 1-.11.335c-3.63 1.81-9.97 4.725-12.935 4.725Z" class="shade90"/>
    <path fill="#fff" d="M122.27 218.245c-3.59 1.715-9.39 4.24-11.73 3.915-3.355-.47 7.36-6.33 11.17-7.16" class="shade0"/>
    <path fill="#28192D" d="M111 222.435a3.487 3.487 0 0 1-.5-.03c-.69-.095-.845-.415-.855-.67-.07-1.775 8.915-6.305 12-7a.244.244 0 0 1 .097-.002.236.236 0 0 1 .16.103.27.27 0 0 1 .041.187.253.253 0 0 1-.193.202c-3.5.765-11.66 5.305-11.615 6.475 0 .095.22.16.425.19 1.705.235 5.825-1.14 11.59-3.89a.261.261 0 0 1 .193-.01.26.26 0 0 1 .142.13.246.246 0 0 1-.041.274.232.232 0 0 1-.079.056c-3.865 1.865-8.865 3.985-11.365 3.985Z" class="shade90"/>
    <path fill="#fff" d="M121.71 215c-3.57 1.645-8.08 3.825-10.17 3.535-3.17-.445 6.125-5.615 10.34-6.905" class="shade0"/>
    <path fill="#28192D" d="M111.945 218.81c-.147 0-.294-.01-.44-.03-.675-.095-.84-.4-.86-.645-.135-1.675 8.05-5.795 11.16-6.74a.252.252 0 0 1 .284.066c.023.026.04.057.05.09a.236.236 0 0 1 .01.102.231.231 0 0 1-.032.098.251.251 0 0 1-.162.119c-4 1.23-10.895 5.185-10.81 6.23 0 .075.175.15.43.185 1.88.27 6-1.645 9.315-3.18l.72-.33a.246.246 0 0 1 .191-.01.257.257 0 0 1 .139.13c.027.06.029.129.006.191a.252.252 0 0 1-.131.139l-.715.335c-3.305 1.53-7.025 3.25-9.155 3.25Z" class="shade90"/>
    <path fill="#fff" d="m130.38 100.555-.435-.245c1.935-3.435 3.32-10 3.335-10.085l.5.1c-.065.275-1.425 6.73-3.4 10.23Zm60.415 85.395s-5.055-.79-8.395-.625Z" class="shade0"/>
    <path fill="#28192D" d="M190.796 186.2h-.04c-.05 0-5.06-.785-8.34-.63a.236.236 0 0 1-.185-.059.24.24 0 0 1-.059-.079.249.249 0 0 1-.021-.097.225.225 0 0 1 .015-.096.243.243 0 0 1 .13-.141.26.26 0 0 1 .095-.023c3.325-.17 8.39.62 8.44.63a.25.25 0 0 1-.035.5v-.005Z" class="shade90"/>
    <path fill="#fff" d="M150.35 91.885a10.285 10.285 0 0 1-7.465-3.385l.39-.315a9.615 9.615 0 0 0 9.545 2.875l.12.5a10.39 10.39 0 0 1-2.59.325Z" class="shade0"/>
    <path fill="#F6D4A0" d="M135.65 131h-.5c0-.1.11-9.925-1.39-15.975l.5-.12c1.5 6.12 1.39 16.005 1.39 16.095Z" class="shade10"/>
    <path fill="#28192D" d="M267.285 76.06s-7.18-2.67-10.18-1.275-2.455 2.715-2.455 2.715-3.86-.5-5.195 1.69c-1.335 2.19-.73 3.56-.73 3.56s-3.625.82-4.5 3.08c-.875 2.26 0 3.605 0 3.605s-4.225 9.065-.81 13.015c3.415 3.95 12.73-10.685 12.73-10.685" class="shade90"/>
    <path fill="#fff" d="M244.605 136.345c7.345 1.16 15 8.265 19.6 24.435 6.905 24.245 1 49.08-2.655 60.56a3.222 3.222 0 0 1-4.514 1.912A3.219 3.219 0 0 1 255.7 222c-7-11.965-22.545-39.54-27.975-58.25" class="shade0"/>
    <path fill="#28192D" d="M258.461 223.845a3.429 3.429 0 0 1-2.975-1.715c-6.59-11.23-22.5-39.395-28-58.31a.254.254 0 0 1 .091-.273.277.277 0 0 1 .091-.045.264.264 0 0 1 .273.092c.02.027.036.058.045.091 5.475 18.855 21.37 46.975 27.95 58.19a2.976 2.976 0 0 0 4.453.789c.444-.365.773-.851.947-1.399 3.905-12.335 9.44-36.58 2.65-60.415-5.5-19.31-14.5-23.5-19.395-24.26a.248.248 0 0 1-.206-.187.25.25 0 0 1 .096-.261.254.254 0 0 1 .185-.047c5 .795 14.225 5.045 19.8 24.615 6.825 23.96 1.265 48.32-2.655 60.705a3.436 3.436 0 0 1-2.925 2.405 3.563 3.563 0 0 1-.425.025Zm10.592-127.133c.282-.163.346-.58.143-.931-.203-.352-.596-.505-.878-.342-.283.163-.347.58-.144.932.203.351.596.504.879.341Zm7.832-3.532c.282-.163.346-.58.143-.931-.203-.352-.596-.505-.878-.342-.283.163-.347.58-.144.932.203.351.596.504.879.341Z" class="shade90"/>
    <path fill="#fff" d="M260.2 106.86c-2.335 1.36-9.29-1.665-7.94-5.55 1.525-4.36 5.125-.76 5.125-.76l2.175 1.41" class="shade0"/>
    <path fill="#28192D" d="M258.719 107.435a8.675 8.675 0 0 1-5.105-1.935c-1.545-1.27-2.11-2.79-1.59-4.28.455-1.3 1.14-2.06 2.04-2.265 1.595-.365 3.265 1.19 3.5 1.395l2.16 1.395a.246.246 0 0 1 .106.158.247.247 0 0 1-.104.257.26.26 0 0 1-.089.038.269.269 0 0 1-.098 0 .266.266 0 0 1-.09-.038l-2.175-1.405a.148.148 0 0 1-.04-.035s-1.63-1.6-3.035-1.28c-.72.165-1.285.82-1.675 1.945-.6 1.725.64 3.075 1.435 3.73 1.865 1.535 4.845 2.275 6.14 1.5a.263.263 0 0 1 .095-.043.26.26 0 0 1 .104 0 .254.254 0 0 1 .186.321.244.244 0 0 1-.135.152 3.205 3.205 0 0 1-1.63.39Z" class="shade90"/>
    <path fill="#fff" d="M254.79 101.96s-.76 2.03 2.315 3.615Z" class="shade0"/>
    <path fill="#28192D" d="M257.105 105.825a.3.3 0 0 1-.115-.025c-3.235-1.67-2.445-3.905-2.435-3.93a.25.25 0 0 1 .47.175c-.025.075-.63 1.855 2.195 3.31a.252.252 0 0 1 .11.118.255.255 0 0 1 .014.161.248.248 0 0 1-.239.191Z" class="shade90"/>
    <path fill="#fff" d="M273.805 94.27s3.275 3.165 5.29 3.595c2.015.43-1.715 3.5-1.715 3.5" class="shade0"/>
    <path fill="#28192D" d="M277.381 101.62a.269.269 0 0 1-.108-.023.26.26 0 0 1-.087-.067.253.253 0 0 1-.055-.183.251.251 0 0 1 .09-.167c1-.83 2.355-2.245 2.215-2.815 0-.045-.045-.18-.39-.255-2.065-.44-5.275-3.53-5.41-3.66a.251.251 0 0 1-.022-.366.253.253 0 0 1 .367.006c.035.03 3.245 3.12 5.17 3.53a.886.886 0 0 1 .77.63c.26 1.075-1.94 2.95-2.385 3.315a.257.257 0 0 1-.155.055Z" class="shade90"/>
    <path fill="#fff" d="M265 92.545s2.09-2 3.105-2.5Z" class="shade0"/>
    <path fill="#28192D" d="M265 92.795a.239.239 0 0 1-.18-.075.262.262 0 0 1-.055-.081.263.263 0 0 1-.019-.096c0-.034.007-.066.019-.097a.262.262 0 0 1 .055-.081c.085-.085 2.13-2.035 3.17-2.5a.25.25 0 0 1 .359.214.241.241 0 0 1-.144.236c-.965.46-3 2.415-3.04 2.435a.245.245 0 0 1-.165.045Zm9.755-3.12a.254.254 0 0 1-.095-.5l3.075-1.26a.256.256 0 0 1 .33.14.26.26 0 0 1 .018.096.245.245 0 0 1-.076.176.24.24 0 0 1-.082.053l-3.075 1.26a.231.231 0 0 1-.095.035Z" class="shade90"/>
    <path fill="#28192D" d="M270.909 83.26s6.96.08 6.92-6c-.04-6.08-6.045-1.76-6.045-1.76s-7.5-2.96-9.84 1.285L259.624 81s-6.5-2-8.085 3.12c-1.585 5.12-.72 12.855 0 15 .72 2.145 8.205 5.24 8.205 5.24l1.08-.64-2.16-6.88s1.6-1.365 2.16-5.045c.56-3.68.5-4.16.5-4.16l9.585-4.375Z" class="shade90"/>
    <path fill="#28192D" d="M254.385 83.14a5.948 5.948 0 0 1 2.665-4.8c2.735-1.8 6.215-1.16 6.215-1.16l-1.04 3.24-4.96 2-2.04 1.36" class="shade90"/>
    <path fill="#fff" d="m253.625 86.694-11.046 4.534a2.1 2.1 0 0 0-1.145 2.74l9.377 22.841a2.1 2.1 0 0 0 2.74 1.145l11.046-4.535a2.1 2.1 0 0 0 1.145-2.74l-9.377-22.84a2.1 2.1 0 0 0-2.74-1.145Z" class="shade0"/>
    <path fill="#28192D" d="M252.76 118.385a2.373 2.373 0 0 1-2.18-1.46l-9.375-22.84a2.37 2.37 0 0 1-.18-.907 2.368 2.368 0 0 1 .702-1.671c.221-.219.484-.39.773-.507l11.03-4.5a2.358 2.358 0 0 1 3.07 1.28l9.4 22.83a2.358 2.358 0 0 1-1.285 3.065l-11.04 4.535a2.413 2.413 0 0 1-.915.175Zm1.66-31.575a1.8 1.8 0 0 0-.7.14l-11.04 4.55a1.854 1.854 0 0 0-1 2.415l9.375 22.84a1.855 1.855 0 0 0 2.415 1l11.03-4.545a1.858 1.858 0 0 0 .999-.998 1.86 1.86 0 0 0 .001-1.412l-9.375-22.845a1.822 1.822 0 0 0-1-1 1.887 1.887 0 0 0-.705-.145Z" class="shade90"/>
    <path fill="#fff" d="m252.799 87.038-11.046 4.535a2.1 2.1 0 0 0-1.145 2.74l9.377 22.84a2.099 2.099 0 0 0 2.74 1.145l11.045-4.535a2.1 2.1 0 0 0 1.146-2.74l-9.377-22.84a2.1 2.1 0 0 0-2.74-1.145Z" class="shade0"/>
    <path fill="#28192D" d="M251.925 118.725a2.357 2.357 0 0 1-2.175-1.455l-9.375-22.845a2.352 2.352 0 0 1 1.28-3.065l11.045-4.535a2.355 2.355 0 0 1 3.065 1.285l9.375 22.84a2.362 2.362 0 0 1-1.28 3.07l-11.045 4.53a2.322 2.322 0 0 1-.89.175Zm1.665-31.575c-.24 0-.478.047-.7.14l-11.045 4.535a1.857 1.857 0 0 0-1 2.415l9.375 22.84a1.857 1.857 0 0 0 2.415 1l11.045-4.53a1.826 1.826 0 0 0 1-1 1.846 1.846 0 0 0 0-1.415L255.305 88.3a1.859 1.859 0 0 0-1.715-1.15Z" class="shade90"/>
    <path fill="#A6C2EA" d="M252.345 103.565a2.695 2.695 0 1 0 0-5.39 2.695 2.695 0 0 0 0 5.39Z" class="shade50"/>
    <path fill="#fff" d="M243.81 115.135a18.342 18.342 0 0 1-5.35-4.735c-2.535-3.27-5.07-7.5-5.87-8.455-.8-.955 2.245-2.555 5.29.78s4 6.075 4 6.075" class="shade0"/>
    <path fill="#28192D" d="M243.811 115.385c-.04 0-.08-.01-.115-.03a18.5 18.5 0 0 1-5.43-4.8c-1.5-1.96-3.06-4.295-4.185-6-.765-1.16-1.37-2.075-1.68-2.45a.778.778 0 0 1-.177-.614.792.792 0 0 1 .332-.546c.905-.795 3.28-.83 5.5 1.615 3.05 3.335 4 6.045 4.035 6.16a.248.248 0 0 1-.013.189.248.248 0 0 1-.334.114.257.257 0 0 1-.128-.143s-.955-2.73-3.925-6c-2.08-2.27-4.165-2.145-4.82-1.575-.185.165-.22.32-.1.465.335.395.945 1.32 1.72 2.5 1.12 1.695 2.65 4 4.16 5.965a18.28 18.28 0 0 0 5.265 4.67.246.246 0 0 1 .123.145c.01.032.013.065.01.097a.251.251 0 0 1-.028.093.246.246 0 0 1-.085.101.245.245 0 0 1-.125.044Z" class="shade90"/>
    <path fill="#fff" d="m247.305 136-1.36-11.595a134.364 134.364 0 0 1-6.065-13.035c-2.965-7.39-1.725-20.5-1.555-22.79.17-2.29 2.81.605 2.81.605s-.32-2 2-2.675c.545-.16 1.635.92 1.635.92s2.165-1.085 2.87-.5c2.19 1.885 3.06 10.42 4.39 15 2.67 9.19 1.93 15.605 1.93 15.605l17.75 22.325-24.405-3.86Z" class="shade0"/>
    <path fill="#28192D" d="M271.715 140.125h-.04l-24.41-3.86a.261.261 0 0 1-.21-.22l-1.35-11.545a136.306 136.306 0 0 1-6.055-13c-1.87-4.665-2.415-12.205-1.615-22.415l.04-.5c.04-.58.245-.94.6-1.065.67-.23 1.65.55 2.225 1.095.095-.715.5-1.83 2.17-2.315.565-.165 1.405.53 1.755.855.56-.26 2.275-1 3-.37 1.55 1.34 2.425 5.665 3.275 9.85.395 1.955.765 3.795 1.19 5.25 2.47 8.5 2.03 14.725 1.95 15.6l17.685 22.245a.25.25 0 0 1 .029.264.247.247 0 0 1-.224.141l-.015-.01ZM247.53 135.8l23.59 3.73-17.35-21.825a.27.27 0 0 1-.055-.185c0-.06.705-6.475-1.92-15.5-.43-1.475-.805-3.325-1.2-5.29-.795-3.91-1.69-8.345-3.115-9.57-.395-.345-1.755.095-2.595.5a.25.25 0 0 1-.285-.045c-.475-.47-1.14-.925-1.39-.86-2.09.62-1.84 2.32-1.83 2.395a.24.24 0 0 1-.023.156.24.24 0 0 1-.112.11.258.258 0 0 1-.295-.056c-.61-.67-1.665-1.545-2.11-1.39-.185.065-.25.38-.265.635l-.04.5c-.795 10.135-.265 17.6 1.58 22.185a136.021 136.021 0 0 0 6.05 13c.015.03.026.062.03.095l1.335 11.415Z" class="shade90"/>
    <path fill="#28192D" d="M241.355 104.435a.25.25 0 0 1-.25-.245l-.22-15a.243.243 0 0 1 .017-.096.247.247 0 0 1 .478.086l.22 15a.26.26 0 0 1-.017.096.246.246 0 0 1-.228.159Zm3.401 0a.25.25 0 0 1-.25-.25v-17.6a.25.25 0 1 1 .5 0v17.6a.25.25 0 0 1-.25.25Z" class="shade90"/>
    <path fill="#fff" d="M252.875 107.325s-1.195-16.86-1.93-18.795c-.735-1.935-1.58-2.085-1.865-.4-.285 1.685-.355 16.34-.355 16.34" class="shade0"/>
    <path fill="#28192D" d="M252.875 107.575a.248.248 0 0 1-.25-.23c0-.17-1.2-16.85-1.915-18.73-.43-1.135-.795-1.395-.955-1.4-.16-.005-.305.225-.43.955-.28 1.64-.35 16.155-.35 16.3a.25.25 0 0 1-.5 0c0-.6.07-14.7.355-16.385.15-.865.445-1.325.88-1.37.435-.045 1.025.545 1.47 1.725.74 1.945 1.895 18.18 1.945 18.87a.252.252 0 0 1-.23.265h-.02Z" class="shade90"/>
    <path fill="#fff" d="M248.5 195.635c-3.325-21.82-4.105-47.715-4.375-53.71-.5-11.615 0-16.145 0-16.145s11.5-5.465 17.265-4.385l5.75 1.085S285 160 287.08 188.68c2.08 28.68-9 39.11-24.675 39.22-3.545.025-6.395-3.805-8.69-9.875" class="shade0"/>
    <path fill="#28192D" d="M262.37 228.15c-3.375 0-6.37-3.375-8.89-10.035a.254.254 0 0 1 .147-.323.255.255 0 0 1 .192.007c.06.028.107.078.131.141 2.44 6.44 5.27 9.71 8.42 9.71h.03c7.27-.05 13.04-2.335 17.15-6.785 5.915-6.4 8.36-17.22 7.28-32.165-1.07-14.785-6.43-31.97-10.74-43.785-4.395-12.045-8.61-21.1-9.135-22.21l-5.625-1.065c-5.285-1-15.71 3.715-17 4.305-.075.845-.445 5.6 0 15.97 0 .565.055 1.31.095 2.21.345 8.68 1.27 31.725 4.28 51.47a.253.253 0 0 1-.5.075c-3-19.77-3.94-42.84-4.285-51.5-.04-.9-.065-1.645-.09-2.21-.5-11.5 0-16.14 0-16.185a.233.233 0 0 1 .044-.116.224.224 0 0 1 .096-.079c.475-.225 11.65-5.5 17.415-4.405l5.75 1.085a.253.253 0 0 1 .18.14c.045.09 4.53 9.54 9.21 22.37 4.32 11.845 9.695 29.08 10.77 43.92 1.09 15.09-1.4 26.035-7.41 32.54-4.21 4.555-10.1 6.895-17.5 6.945l-.015-.025Z" class="shade90"/>
    <path fill="#ECA3B5" d="m275.845 207.743-2.628 2.969.374.332 2.628-2.969-.374-.332Zm6.536 7.114-1.877 3.924.451.216 1.877-3.924-.451-.216Zm-16.371 5.801-1.877 3.925.451.215 1.877-3.924-.451-.216Zm-10.711-2.085-.039.498 4.336.345.04-.498-4.337-.345Zm-7.291-16.182-.039.499 4.336.345.04-.499-4.337-.345Zm12.01 6.442-.039.499 4.336.345.039-.499-4.336-.345Zm12.706 10.937a1.365 1.365 0 1 0 0-2.73 1.365 1.365 0 0 0 0 2.73Zm-11.939 6.31a1.365 1.365 0 1 0 0-2.73 1.365 1.365 0 0 0 0 2.73Zm-6.4-15.185a1.365 1.365 0 1 0 0-2.73 1.365 1.365 0 0 0 0 2.73Zm7.08 5.115a.68.68 0 1 0 0-1.36.68.68 0 0 0 0 1.36Zm19.279-13.465a.68.68 0 1 0 .001-1.359.68.68 0 0 0-.001 1.359ZM268.629 212.6a.68.68 0 1 0 .001-1.359.68.68 0 0 0-.001 1.359Zm-.824 6.485a.68.68 0 1 0 .001-1.359.68.68 0 0 0-.001 1.359Zm10.381-8.19a.68.68 0 1 0 0-1.36.68.68 0 0 0 0 1.36Zm-45.905-19.784-.5.011.208 9.008.5-.012-.208-9.007Zm12.936-.919-1.877 3.925.451.215 1.877-3.924-.451-.216Zm-27.062 3.731-.04.499 4.337.345.039-.498-4.336-.346Zm17.748 7.849-.04.499 4.337.345.039-.499-4.336-.345Zm-11.421-15.453-.39.312 3.081 3.856.39-.313-3.081-3.855Zm11.078 8.781a1.365 1.365 0 1 0 0-2.73 1.365 1.365 0 0 0 0 2.73Zm-17.746 6.485a1.365 1.365 0 1 0 0-2.73 1.365 1.365 0 0 0 0 2.73Zm6.485-10.24a.68.68 0 1 0 0-1.36.68.68 0 0 0 0 1.36Zm7.166-3.415a.68.68 0 1 0 0-1.36.68.68 0 0 0 0 1.36Zm9.555-1.705a.68.68 0 1 0 0-1.36.68.68 0 0 0 0 1.36Zm37.063-4.637-2.624 2.966.374.331 2.625-2.965-.375-.332Zm6.542 7.106-1.877 3.925.451.215 1.877-3.924-.451-.216Zm-17.057 11.271-1.877 3.924.451.216 1.877-3.924-.451-.216Zm.686-5.464-1.877 3.924.451.216 1.877-3.924-.451-.216Zm7.065 5.782-.04.499 4.337.345.039-.499-4.336-.345Zm-11.428-15.487-.391.312 3.082 3.855.39-.313-3.081-3.854Zm11.079 8.809a1.365 1.365 0 1 0 0-2.73 1.365 1.365 0 0 0 0 2.73Zm-17.746 6.485a1.365 1.365 0 1 0 0-2.73 1.365 1.365 0 0 0 0 2.73Zm6.485-10.24a.68.68 0 1 0 .001-1.359.68.68 0 0 0-.001 1.359Zm11.26 17.405a.68.68 0 1 0 .001-1.359.68.68 0 0 0-.001 1.359Zm-4.094-20.815a.68.68 0 1 0 .001-1.359.68.68 0 0 0-.001 1.359Zm2.731 17.06a.68.68 0 1 0 0-1.36.68.68 0 0 0 0 1.36Zm6.824-18.765a.68.68 0 1 0 .001-1.359.68.68 0 0 0-.001 1.359Zm36.201 3.803-.5.01.087 4.35.5-.01-.087-4.35Zm6.461-5.123-.5.01.087 4.35.5-.01-.087-4.35Zm-27.08 2.152-4.022 1.658.191.462 4.022-1.657-.191-.463Zm22.559 9.544-4.022 1.658.19.462 4.022-1.658-.19-.462Zm-.887 5.041-4.022 1.658.191.462 4.021-1.657-.19-.463Zm-19.104-6.01-.203.457 2.427 1.077.202-.457-2.426-1.077Zm11.166 1.998a1.365 1.365 0 1 0 0-2.73 1.365 1.365 0 0 0 0 2.73Zm-17.42-47.16a1.365 1.365 0 1 0 0-2.73 1.365 1.365 0 0 0 0 2.73Zm-7.221 16.72a1.365 1.365 0 1 0 0-2.73 1.365 1.365 0 0 0 0 2.73Zm13.21 32.115a.68.68 0 1 0 0-1.36.68.68 0 0 0 0 1.36Zm22.39-6.4a.68.68 0 1 0 .001-1.359.68.68 0 0 0-.001 1.359Zm-17.545.11a.68.68 0 1 0 .001-1.359.68.68 0 0 0-.001 1.359Zm23.575 5.605a.68.68 0 1 0 0-1.36.68.68 0 0 0 0 1.36Zm-15.83-11.45a.68.68 0 1 0-.001-1.361.68.68 0 0 0 .001 1.361Zm-85.248-22.002-.44.237 4.264 7.937.441-.237-4.265-7.937Zm11.622-6.655-.5.012.104 4.348.499-.011-.103-4.349Zm-16.216 26.418-3.071 1.365.203.457 3.071-1.365-.203-.457Zm16.64-13.527-4.021 1.657.19.463 4.022-1.658-.191-.462Zm-14.385 1.56-.207.456 4.493 2.041.207-.455-4.493-2.042Zm84.332-3.814a1.365 1.365 0 1 0 0-2.73 1.365 1.365 0 0 0 0 2.73Zm-83.365 13.05a.68.68 0 1 0 .001-1.359.68.68 0 0 0-.001 1.359Zm11.965-2.715a.68.68 0 1 0 0-1.36.68.68 0 0 0 0 1.36Zm-13.076-16.7a.68.68 0 1 0 .001-1.359.68.68 0 0 0-.001 1.359Zm10.16 13.975a.68.68 0 1 0 .001-1.359.68.68 0 0 0-.001 1.359Zm-2.414-19.825a.68.68 0 1 0 .001-1.359.68.68 0 0 0-.001 1.359Zm104.696 14.945-.997 3.833.484.126.997-3.833-.484-.126Zm8.974 4.766-.5.01.087 4.35.5-.01-.087-4.35Zm-1.492-13.356-.5.012.103 4.348.5-.012-.103-4.348Zm-10.01-.034-4.022 1.657.191.463 4.022-1.658-.191-.462Zm-1.793-8.002-.207.455 4.493 2.042.207-.455-4.493-2.042Zm6.006 34.501a1.365 1.365 0 1 0 0-2.73 1.365 1.365 0 0 0 0 2.73Zm-5.666-17.735a1.365 1.365 0 1 0 0-2.73 1.365 1.365 0 0 0 0 2.73Zm1.449-12.14a.68.68 0 1 0 0-1.36.68.68 0 0 0 0 1.36Zm17.92 10.415a.68.68 0 1 0 0-1.36.68.68 0 0 0 0 1.36Zm-14.929-5.825a.68.68 0 1 0 0-1.36.68.68 0 0 0 0 1.36Zm2.73 9.21a.68.68 0 1 0 .001-1.359.68.68 0 0 0-.001 1.359Zm-88.06-37.281-2.628 2.969.375.331 2.627-2.969-.374-.331Zm8.187-5.898-2.627 2.969.374.331 2.628-2.969-.375-.331Zm-1.647 13.019-1.877 3.925.451.215 1.877-3.924-.451-.216Zm13.221-.684-1.877 3.925.451.215 1.877-3.924-.451-.216Zm-29.598 6.486-1.877 3.924.451.216 1.877-3.925-.451-.215Zm-10.679-2.077-.04.499 4.337.345.039-.498-4.336-.346Zm20.795 3.734-.04.499 4.337.345.039-.499-4.336-.345Zm-3.393-2.559a1.365 1.365 0 1 0 0-2.73 1.365 1.365 0 0 0 0 2.73Zm-.686-17.18a1.365 1.365 0 1 0 0-2.73 1.365 1.365 0 0 0 0 2.73Zm2.051 32.195a1.365 1.365 0 1 0 0-2.73 1.365 1.365 0 0 0 0 2.73Zm-12.627-18.77a.68.68 0 1 0 0-1.36.68.68 0 0 0 0 1.36Zm22.862 4.435a.68.68 0 1 0 0-1.36.68.68 0 0 0 0 1.36Zm-15.696-7.845a.68.68 0 1 0 0-1.36.68.68 0 0 0 0 1.36Zm2.731 17.06a.68.68 0 1 0-.001-1.361.68.68 0 0 0 .001 1.361Zm6.824-18.77a.68.68 0 1 0 0-1.36.68.68 0 0 0 0 1.36Zm10.879-2.625a.68.68 0 1 0 0-1.36.68.68 0 0 0 0 1.36Zm14.441 33.184-.5.012.208 9.008.5-.012-.208-9.008Zm6.118-17.325-2.628 2.969.375.331 2.628-2.969-.375-.331Zm6.54 7.115-1.877 3.924.451.216 1.877-3.924-.451-.216Zm-16.381 5.799-1.876 3.924.451.216 1.876-3.924-.451-.216Zm-10.7-2.087-.04.499 4.337.345.039-.499-4.336-.345Zm71.185 39.344-.039.498 4.336.346.04-.499-4.337-.345Zm-38.323-22.965a1.365 1.365 0 1 0 0-2.73 1.365 1.365 0 0 0 0 2.73Zm36.571 19.465a1.365 1.365 0 1 0 0-2.73 1.365 1.365 0 0 0 0 2.73Zm-69.754-28.165a1.365 1.365 0 1 0 0-2.73 1.365 1.365 0 0 0 0 2.73Zm6.485-10.24a.68.68 0 1 0-.001-1.361.68.68 0 0 0 .001 1.361Zm7.164-3.41a.68.68 0 1 0 0-1.36.68.68 0 0 0 0 1.36Zm4.435 19.105a.68.68 0 1 0 .001-1.359.68.68 0 0 0-.001 1.359Zm5.119-20.815a.68.68 0 1 0 .001-1.359.68.68 0 0 0-.001 1.359Zm21.496-6.071-.5.012.208 9.008.5-.012-.208-9.008Zm2.759 23.949-2.628 2.969.375.332 2.627-2.97-.374-.331Zm-4.749.667-1.877 3.924.451.216 1.877-3.924-.451-.216Zm-3.139-29.219-1.877 3.925.451.215 1.877-3.924-.451-.216Zm-8.37-7.359-.04.499 4.336.345.04-.498-4.336-.346Zm1.983 21.978a1.365 1.365 0 1 0 0-2.73 1.365 1.365 0 0 0 0 2.73Zm-2.33-14.315a1.365 1.365 0 1 0 0-2.73 1.365 1.365 0 0 0 0 2.73Zm5.167.73a.68.68 0 1 0 0-1.36.68.68 0 0 0 0 1.36Zm6.484 37.655a.68.68 0 1 0 0-1.36.68.68 0 0 0 0 1.36Zm-3.355-29.465a.68.68 0 1 0 0-1.36.68.68 0 0 0 0 1.36Zm23.234 22.61a.68.68 0 1 0 0-1.36.68.68 0 0 0 0 1.36Zm-47.569-40.834-.5.012.208 9.008.5-.012-.208-9.008Zm6.386-8.041-2.628 2.969.375.332 2.628-2.969-.375-.332Zm6.538 7.116-1.877 3.925.451.215 1.877-3.924-.451-.216Zm-21.722 13.722-.039.498 4.336.345.04-.498-4.337-.345Zm63.057 43.146-.04.499 4.337.345.039-.499-4.336-.345Zm-72.254-66.93-.04.498 4.337.346.039-.499-4.336-.345Zm10.195 6.19-.391.312 3.081 3.856.391-.313-3.081-3.855Zm11.07 8.776a1.365 1.365 0 1 0 0-2.73 1.365 1.365 0 0 0 0 2.73Zm-17.74 6.485a1.365 1.365 0 1 0 0-2.73 1.365 1.365 0 0 0 0 2.73Zm6.481-10.24a.68.68 0 1 0 0-1.36.68.68 0 0 0 0 1.36Zm-5.461 16.72a.68.68 0 1 0 0-1.36.68.68 0 0 0 0 1.36Zm12.625-20.13a.68.68 0 1 0-.001-1.361.68.68 0 0 0 .001 1.361Zm2.73 17.06a.68.68 0 1 0 0-1.36.68.68 0 0 0 0 1.36Zm6.824-18.765a.68.68 0 1 0 0-1.36.68.68 0 0 0 0 1.36Zm-40.132 42.314-.499.033.208 3.188.499-.032-.208-3.189Zm19.423.892L264.623 177l.451.216 1.877-3.925-.451-.215Zm-40.264-22.861-1.877 3.925.451.215 1.877-3.924-.451-.216Zm59.62 22.842-.04.498 4.337.345.039-.498-4.336-.345Zm6.135-5.802-.04.499 4.336.345.04-.498-4.336-.346Zm-38.244 11.576-.04.498 4.336.345.04-.498-4.336-.345Zm12.992-.996-.04.498 4.337.346.039-.499-4.336-.345Zm-16.38-1.555a1.365 1.365 0 1 0 0-2.73 1.365 1.365 0 0 0 0 2.73Zm-11.603-2.05a1.365 1.365 0 1 0 0-2.73 1.365 1.365 0 0 0 0 2.73Zm18.769-16.38a1.365 1.365 0 1 0 0-2.73 1.365 1.365 0 0 0 0 2.73Zm-11.259 11.26a.68.68 0 1 0 0-1.36.68.68 0 0 0 0 1.36Zm17.398 10.92a.68.68 0 1 0 0-1.36.68.68 0 0 0 0 1.36Zm-7.843-12.625a.68.68 0 1 0-.001-1.361.68.68 0 0 0 .001 1.361Z" class="shade40"/>
    <path fill="#fff" d="M278.875 103.765a5.212 5.212 0 0 1-3 0 8.83 8.83 0 0 1-2.775-1.315 12.426 12.426 0 0 0 2.225 3.6c1.32 1.325 2.5.905 2.5.905l1.05-3.19Z" class="shade0"/>
    <path fill="#28192D" d="M277.356 107.265a3.09 3.09 0 0 1-2.2-1.035 12.619 12.619 0 0 1-2.275-3.69.255.255 0 0 1-.009-.159.253.253 0 0 1 .089-.131.253.253 0 0 1 .305 0 8.718 8.718 0 0 0 2.69 1.27 5.01 5.01 0 0 0 2.835 0 .256.256 0 0 1 .137-.008.255.255 0 0 1 .123.063.265.265 0 0 1 .065.26l-1.045 3.185a.264.264 0 0 1-.155.16 1.97 1.97 0 0 1-.56.085Zm-3.67-4.15a10.684 10.684 0 0 0 1.825 2.76c.97.97 1.825.925 2.125.87l.86-2.62a5.777 5.777 0 0 1-2.675-.12 9.332 9.332 0 0 1-2.135-.89Zm-14.862-14.32s2.395 1.04 4.44.63c2.045-.41 2.32-1.455 2.32-1.455s2 .405 3.5-.41 1.685-3.195 1.685-3.195 3.54-.18 3.63-1.83c.09-1.65-.9-2.11-.9-2.11l-4.815.575-6.045 4.82-1.975 1.74-1.84 1.235Zm-10.918-4.96c-.025-.135-.68-3.31.605-5.63 1.155-2.095 4.83-1.32 5.915-1.04.095-.965.555-3.83 2.63-4.225 1.85-.35 4.595 1.125 5.78 1.835a1.32 1.32 0 0 1 .135-.715c.34-.67 1.255-1.07 2.725-1.195 3.695-.305 7.415 2.655 7.575 2.78l-.315.39c-.035-.03-3.735-2.95-7.22-2.67-1.6.13-2.145.575-2.32.92a1.037 1.037 0 0 0 .065.925l.605 1-.955-.64c-.04 0-3.825-2.53-6-2.12-2.06.395-2.25 4.035-2.25 4.07v.32l-.31-.09c-.045 0-4.5-1.345-5.63.72-1.19 2.155-.555 5.25-.55 5.28l-.485.085Z" class="shade90"/>
    <path fill="#28192D" d="M262.606 90.5a5.732 5.732 0 0 1-2.17-.455l.21-.455s2.385 1.06 4-.27a4.457 4.457 0 0 0 1.66-3.075v-1.09l.465 1s.615 1.095 3.39-.125c2.88-1.265 2.92-4.745 2.92-4.78h.5c0 .04-.035 3.84-3.22 5.24-2.065.905-3.12.64-3.625.31a5.093 5.093 0 0 1-1.78 2.915 3.572 3.572 0 0 1-2.35.785Z" class="shade90"/>
  </g>
</svg>
