<?xml version="1.0" encoding="UTF-8"?> <svg xmlns="http://www.w3.org/2000/svg" width="158.275" height="46.214" viewBox="0 0 158.275 46.214"><g id="moosend_logo_full" transform="translate(0 -21.99)"><path id="Path_590" data-name="Path 590" d="M50.655,53.745V35.094A4.489,4.489,0,0,0,46.162,30.6H26.994A4.515,4.515,0,0,0,22.5,35.094V53.745a4.515,4.515,0,0,0,4.494,4.494h4.693l-3.818,1.193,3.062,9.7,14.356-4.573L43.3,58.2h2.863a4.506,4.506,0,0,0,4.494-4.454" transform="translate(-13.552 -5.186)" fill="#fff"></path><path id="Path_591" data-name="Path 591" d="M35.254,74.8c-6.562,0-11.97,1.79-14.754,4.295a5.949,5.949,0,0,0,5.925,5.965H44.042a5.911,5.911,0,0,0,6.084-5.846C47.264,76.709,41.815,74.8,35.254,74.8" transform="translate(-12.348 -31.808)" fill="#e2011a"></path><path id="Path_592" data-name="Path 592" d="M129.6,63.9a13.965,13.965,0,0,1,.477,3.1c0,1.352-.119,11.175-.119,11.175l3.42.08-.04-11.334a4.481,4.481,0,0,1,2.9-1.153,2.131,2.131,0,0,1,2.187,2.068v.04c0,.875-.08,10.379-.08,10.379l3.42-.04.04-11.334a4.325,4.325,0,0,1,2.7-1.114,2.256,2.256,0,0,1,2.227,2.227c.04.835-.08,10.3-.08,10.3l3.5-.119L150.12,67.2a4.745,4.745,0,0,0-4.971-3.9,6.913,6.913,0,0,0-4.414,1.591A4.71,4.71,0,0,0,137,63.34a7.4,7.4,0,0,0-4.534,1.511,3.9,3.9,0,0,0-.517-1.273Z" transform="translate(-78.061 -24.882)" fill="#191d19"></path><path id="Path_593" data-name="Path 593" d="M200.743,69.742c-.477-6.164-5.13-6.442-5.13-6.442h-2.028c-5.289.4-6,5.607-6.084,6.681,0,.119.04,1.949.04,1.949a6.336,6.336,0,0,0,5.249,6.482h1.949c5.766-.6,6-6.6,6-6.6V69.742m-6.562,6.2c-2.784-.04-3.34-2.466-3.3-4.971.04-2.386.159-5.09,3.221-5.17,0,0,3.42-.477,3.34,4.891.04,2.664-.517,5.17-3.261,5.249" transform="translate(-112.936 -24.882)" fill="#191d19"></path><path id="Path_594" data-name="Path 594" d="M269.644,66.756A10.292,10.292,0,0,0,266.025,66c-1.551.08-2.386.239-2.386,1.432s1.233,1.551,3.181,2.307,3.659,2.028,3.619,4.255-1.988,4.613-5.965,4.414c-3.38-.04-4.374-1.193-4.374-1.193l.8-2.307a10.017,10.017,0,0,0,3.659.8c1.63-.08,2.505-.239,2.505-1.591s-1.63-1.829-3.181-2.505-3.7-1.71-3.619-4.136,2.068-4.255,5.528-4.176,4.454.954,4.454.954Z" transform="translate(-156.664 -24.878)" fill="#191d19"></path><path id="Path_595" data-name="Path 595" d="M300.33,74.793s-.835.954-3.738.954c-3.7.08-3.818-2.823-3.857-3.142,3.062.04,8.987-1.193,8.828-5.13s-4.374-4.136-4.374-4.136l-1.312-.04c-5.886.716-6.283,7.158-6.283,7.158-.159,6.164,3.857,8.033,6.88,8.033a9.325,9.325,0,0,0,5.21-1.67Zm-3.857-8.987s2.187.04,2.187,1.909-3.38,2.824-6,2.585c0,0,0-4.335,3.818-4.494" transform="translate(-174.426 -24.882)" fill="#191d19"></path><path id="Path_596" data-name="Path 596" d="M325.3,64.105a18.9,18.9,0,0,1,.477,2.943c.04.994-.04,11.533-.04,11.533h3.42l-.079-11.413a4.671,4.671,0,0,1,2.664-.994c1.432,0,2.625.6,2.625,2.227V78.62h3.539l-.119-10.737a4.834,4.834,0,0,0-5.17-4.414,6.006,6.006,0,0,0-4.335,1.551c-.318-.835-.517-1.392-.517-1.392Z" transform="translate(-195.936 -24.971)" fill="#191d19"></path><path id="Path_597" data-name="Path 597" d="M377.108,66.971a.9.9,0,0,1-1.113-.716,1.72,1.72,0,0,0-.04-.2c-.119-1.153,0-17.657,0-17.657l-3.221.358-.079,5.846s-1.67-.239-2.386-.239-6.641.08-6.88,7.635,5.17,7.556,5.687,7.556a4.876,4.876,0,0,0,4.017-1.988c.119.477.437,1.75,2.585,1.71A6.023,6.023,0,0,0,377.148,69Zm-4.494-2.9s-.318,2.943-3.142,2.943-2.784-3.579-2.784-4.852,0-5.289,3.778-5.289a6.254,6.254,0,0,1,2.108.239Z" transform="translate(-218.873 -15.907)" fill="#191d19"></path><path id="Path_598" data-name="Path 598" d="M237.843,69.842c-.517-6.2-5.13-6.442-5.13-6.442h-2.028c-5.289.437-6,5.647-6.084,6.681,0,.119.04,1.949.04,1.949a6.336,6.336,0,0,0,5.249,6.482h1.949c5.766-.557,6.045-6.6,6.045-6.6s0-.636-.04-2.068m-6.562,6.2c-2.784-.04-3.34-2.466-3.3-4.971.04-2.386.159-5.09,3.221-5.17,0,0,3.42-.477,3.34,4.891.04,2.664-.517,5.17-3.261,5.249" transform="translate(-135.282 -24.942)" fill="#191d19"></path><path id="Path_599" data-name="Path 599" d="M21.673,36.669c.2-.716-.04-1.432-.477-1.551s-.994.4-1.153,1.113.04,1.432.477,1.551.994-.4,1.153-1.113m2.664.04c.2.716.756,1.233,1.193,1.074s.636-.835.437-1.551-.756-1.193-1.193-1.074-.636.8-.437,1.551M18.214,48.36c-.6-1.034-1.63-1.591-2.307-1.193s-.676,1.551-.08,2.585,1.63,1.591,2.307,1.233.676-1.551.08-2.625M30.7,49.832c.636-1.074.6-2.227-.08-2.625s-1.67.159-2.307,1.233c-.6,1.034-.6,2.227.08,2.585s1.67-.159,2.307-1.193M36.666,48.4a4.7,4.7,0,0,1-4.693,4.693H13.839A4.7,4.7,0,0,1,9.147,48.4h0V46.491c2.983-2.068,7.914-3.5,13.76-3.5s10.777,1.511,13.8,3.619Zm0-3.261c-3.022-2.147-7.993-3.42-13.8-3.42-5.727,0-10.7,1.312-13.76,3.42V30.226A4.7,4.7,0,0,1,13.8,25.534H31.933a4.7,4.7,0,0,1,4.693,4.693ZM15.39,55.28l4.454,2.227L17.538,62Zm3.142,7.556L21,58.063l2.784,1.392,1.591-2.823L30.263,59.1Zm6.6-8.431-1.909,3.42-6.76-3.42ZM30.7,57.944l-4.732-2.386L26.6,54.4h2.983ZM45.613,31.5,35.075,25.375a6.413,6.413,0,0,0-3.261-1.113c-1.829-4.374-3.34-1.273-3.857-.04H17.9c-1.829-4.335-3.34-1.233-3.857,0a6.259,6.259,0,0,0-3.7,1.233L0,31.459S4.176,34.8,7.834,32.97V47.963a6.438,6.438,0,0,0,6.045,6.4v.2c0,.08.04.119.04.2v.08l2.7,8.55h0a1.612,1.612,0,0,0,.2.358.549.549,0,0,1,.119.159l.119.119h0a1.368,1.368,0,0,0,.835.318,1.413,1.413,0,0,0,.4-.08l13.044-4.1a1.2,1.2,0,0,0,.835-.8h0a1.413,1.413,0,0,0,.08-.4V58.9a1.353,1.353,0,0,0-.04-.4l-1.273-4.1h.716a6.339,6.339,0,0,0,6.283-6.363L37.819,33.01c3.659,1.829,7.834-1.551,7.794-1.511" fill="#191d19"></path><path id="Path_600" data-name="Path 600" d="M268.462,119.067h-.915l1.789,4.176-.278.716a2.142,2.142,0,0,1-.278.517.546.546,0,0,1-.477.159,1.413,1.413,0,0,1-.4-.08l-.08.716a.677.677,0,0,0,.278.04h.278a2.685,2.685,0,0,0,.557-.08.825.825,0,0,0,.4-.239,2.185,2.185,0,0,0,.278-.358l.239-.477,2.028-5.17h-.875l-1.153,3.261h0Zm-5.647,0c0,.119.04.278.04.477v3.7h.835v-2.227a1.491,1.491,0,0,1,.318-.994,1,1,0,0,1,.8-.358,1.059,1.059,0,0,1,.477.119.627.627,0,0,1,.278.278,1.19,1.19,0,0,1,.159.4,1.933,1.933,0,0,1,.04.477v2.307h.835v-2.585a3.918,3.918,0,0,0-.08-.676,1.569,1.569,0,0,0-.756-.915,1.706,1.706,0,0,0-1.153-.04,1.19,1.19,0,0,0-.4.159c-.119.08-.2.159-.318.239a.866.866,0,0,0-.2.318h-.04v-.318a1.1,1.1,0,0,0-.04-.358Zm-2.307,1.591a8.652,8.652,0,0,0-1.034.04,4.083,4.083,0,0,0-.954.2,1.8,1.8,0,0,0-.676.437.879.879,0,0,0-.239.756,1.036,1.036,0,0,0,.159.6,1.128,1.128,0,0,0,.358.4,1.225,1.225,0,0,0,.477.2,2.327,2.327,0,0,0,.517.08,1.615,1.615,0,0,0,.835-.2,1.872,1.872,0,0,0,.6-.517h.04a3.07,3.07,0,0,0,.08.6h.756a1.354,1.354,0,0,1-.04-.4v-2.267a1.649,1.649,0,0,0-.119-.636,1.4,1.4,0,0,0-.318-.517,1.348,1.348,0,0,0-.557-.358,2.564,2.564,0,0,0-.8-.119,2.673,2.673,0,0,0-.954.159,2.2,2.2,0,0,0-.756.477l.437.517a1.513,1.513,0,0,1,.517-.358,1.857,1.857,0,0,1,.676-.119,1.309,1.309,0,0,1,.756.239.757.757,0,0,1,.278.676Zm0,.6v.2a1.39,1.39,0,0,1-.318.875,1.234,1.234,0,0,1-.875.358.875.875,0,0,1-.318-.04c-.08-.04-.2-.04-.278-.119a.479.479,0,0,1-.2-.2.749.749,0,0,1-.08-.318.507.507,0,0,1,.2-.437.948.948,0,0,1,.437-.239l.6-.119c.239,0,.437-.04.636-.04Zm-7.556,1.352h0a2.072,2.072,0,0,0,.636.557,2.128,2.128,0,0,0,1.71.04,2.612,2.612,0,0,0,.676-.477,2.164,2.164,0,0,0,.437-.716,2.14,2.14,0,0,0,.159-.875,2.267,2.267,0,0,0-.159-.875,1.936,1.936,0,0,0-.437-.716,1.982,1.982,0,0,0-1.511-.636,2.359,2.359,0,0,0-.915.2,1.594,1.594,0,0,0-.6.557h-.04v-.676h-.8v6.283h.835Zm2.664-.915a1.163,1.163,0,0,1-.278.477,1.243,1.243,0,0,1-.437.358,1.551,1.551,0,0,1-1.193,0,1.765,1.765,0,0,1-.437-.318,1.49,1.49,0,0,1-.278-.477,1.9,1.9,0,0,1,0-1.153,1.879,1.879,0,0,1,.278-.477,1.128,1.128,0,0,1,.437-.318,1.551,1.551,0,0,1,1.193,0,1.766,1.766,0,0,1,.437.318,2.964,2.964,0,0,1,.278.477,1.777,1.777,0,0,1,0,1.114m-10.658-1.949h0a.775.775,0,0,1-.04-.318,1.1,1.1,0,0,0-.04-.358h-.8a2.282,2.282,0,0,0,.04.477,1.581,1.581,0,0,1,0,.437v3.261h.835v-2.227a1.491,1.491,0,0,1,.318-.994.979.979,0,0,1,.756-.358,1.413,1.413,0,0,1,.4.08.535.535,0,0,1,.278.239,1.412,1.412,0,0,1,.159.358,1.783,1.783,0,0,1,.04.437v2.466h.835v-2.267c0-.159.04-.318.04-.477a1.074,1.074,0,0,1,.2-.437,1.211,1.211,0,0,1,.318-.318,1.059,1.059,0,0,1,.477-.119.8.8,0,0,1,.437.119.93.93,0,0,1,.278.278,1.19,1.19,0,0,1,.159.4,1.934,1.934,0,0,1,.04.477V123.2h.835v-2.585a3.919,3.919,0,0,0-.08-.676,1.469,1.469,0,0,0-.278-.557,1.371,1.371,0,0,0-.477-.358,1.436,1.436,0,0,0-.716-.119,2.137,2.137,0,0,0-.835.2,1.535,1.535,0,0,0-.6.636,1.366,1.366,0,0,0-.517-.636,1.645,1.645,0,0,0-.756-.2,1.565,1.565,0,0,0-.835.239,1.15,1.15,0,0,0-.477.6m-2.147.517a2.079,2.079,0,0,0-.477-.676,1.664,1.664,0,0,0-.716-.437,2.758,2.758,0,0,0-1.79,0,2.165,2.165,0,0,0-.716.437,2.613,2.613,0,0,0-.477.676,2.326,2.326,0,0,0,0,1.79,2.256,2.256,0,0,0,.477.716,1.665,1.665,0,0,0,.716.437,2.758,2.758,0,0,0,1.79,0,2.125,2.125,0,0,0,1.193-1.153,2.326,2.326,0,0,0,0-1.79m-.8,1.432a1.163,1.163,0,0,1-.278.477,1.243,1.243,0,0,1-.437.358,1.551,1.551,0,0,1-1.193,0,1.243,1.243,0,0,1-.437-.358,2.97,2.97,0,0,1-.278-.477,1.449,1.449,0,0,1-.08-.557,2.347,2.347,0,0,1,.08-.557,1.163,1.163,0,0,1,.278-.477,1.128,1.128,0,0,1,.437-.318,1.551,1.551,0,0,1,1.193,0,1.766,1.766,0,0,1,.437.318,2.971,2.971,0,0,1,.278.477,1.45,1.45,0,0,1,.08.557.875.875,0,0,1-.08.557m-4.255-2.068a2.05,2.05,0,0,0-.676-.517,2.486,2.486,0,0,0-1.75,0,2.165,2.165,0,0,0-.716.437,2.258,2.258,0,0,0-.477.716,2.71,2.71,0,0,0,0,1.829,2.08,2.08,0,0,0,.477.676,1.664,1.664,0,0,0,.716.437,2.267,2.267,0,0,0,.875.159,2.466,2.466,0,0,0,.915-.159,2.613,2.613,0,0,0,.676-.477l-.557-.517a1.243,1.243,0,0,1-.437.358,1.453,1.453,0,0,1-1.153,0,1.766,1.766,0,0,1-.437-.318,2.964,2.964,0,0,1-.278-.477,1.9,1.9,0,0,1,0-1.153,1.163,1.163,0,0,1,.278-.477,1.766,1.766,0,0,1,.437-.318,1.453,1.453,0,0,1,.6-.119,1.27,1.27,0,0,1,.557.119,1.557,1.557,0,0,1,.4.318Zm-7.794-.8a1.4,1.4,0,0,0,.2.318.866.866,0,0,0,.318.2.845.845,0,0,0,.716,0,1.4,1.4,0,0,0,.318-.2.872.872,0,0,0,.278-.676,1.128,1.128,0,0,0-.278-.676.866.866,0,0,0-.318-.2.845.845,0,0,0-.716,0,1.4,1.4,0,0,0-.318.2.866.866,0,0,0-.2.318,1.161,1.161,0,0,0-.08.358.591.591,0,0,0,.08.358m.119-.676a.788.788,0,0,1,.437-.437.749.749,0,0,1,.318-.08.936.936,0,0,1,.318.08c.08.04.2.08.239.159a.641.641,0,0,1,.159.278.878.878,0,0,1,0,.636.788.788,0,0,1-.437.437.676.676,0,0,1-.636,0,1.238,1.238,0,0,1-.239-.159.641.641,0,0,1-.159-.278.878.878,0,0,1,0-.636m.358.835h.2v-.437h.159l.239.437h.239L231,118.51c.08,0,.119-.04.2-.08a.3.3,0,0,0,.08-.2.239.239,0,0,0-.04-.159c-.04-.04-.04-.08-.08-.08a.146.146,0,0,0-.119-.04h-.557v1.034Zm.2-.6v-.318h.159a.239.239,0,0,1,.159.04c.04.04.08.08.08.119s-.04.119-.08.119a.239.239,0,0,1-.159.04Zm-4.454,2.346a1.059,1.059,0,0,1,.119-.477,1.491,1.491,0,0,1,.676-.636,1.092,1.092,0,0,1,.517-.08,2.327,2.327,0,0,1,.517.08,1.129,1.129,0,0,1,.358.239,1.868,1.868,0,0,1,.239.358,2,2,0,0,1,.08.477h-2.505Zm3.181-.557a2.328,2.328,0,0,0-.4-.676,1.817,1.817,0,0,0-.636-.437,2.077,2.077,0,0,0-.835-.159,1.956,1.956,0,0,0-.835.159,2.462,2.462,0,0,0-.676.437,1.664,1.664,0,0,0-.437.716,2.267,2.267,0,0,0-.159.875,2.465,2.465,0,0,0,.159.915,2.831,2.831,0,0,0,.437.676,1.664,1.664,0,0,0,.716.437,2.64,2.64,0,0,0,1.909-.04,2.094,2.094,0,0,0,.8-.636l-.6-.477a1.012,1.012,0,0,1-.477.437,1.438,1.438,0,0,1-1.67-.159,1.557,1.557,0,0,1-.318-.4,1.059,1.059,0,0,1-.119-.477h3.3v-.278a3.386,3.386,0,0,0-.159-.915m-6.959-.239V123.2h.835v-2.187a2.328,2.328,0,0,1,.08-.517,2.132,2.132,0,0,1,.2-.437,2.574,2.574,0,0,1,.358-.318,1.224,1.224,0,0,1,.517-.119,1.353,1.353,0,0,1,.4.04l.04-.756a.876.876,0,0,0-.318-.04,1.224,1.224,0,0,0-.756.239,1.486,1.486,0,0,0-.517.6h-.04v-.318a.987.987,0,0,0-.04-.358h-.8a2.281,2.281,0,0,0,.04.477,1.582,1.582,0,0,1,0,.437m-1.312.278a2.079,2.079,0,0,0-.477-.676,1.664,1.664,0,0,0-.716-.437,2.758,2.758,0,0,0-1.79,0,2.008,2.008,0,0,0-1.193,1.153,2.326,2.326,0,0,0,0,1.79,2.194,2.194,0,0,0,1.193,1.193,2.758,2.758,0,0,0,1.79,0,2.193,2.193,0,0,0,1.193-1.193,2.88,2.88,0,0,0,0-1.829m-.835,1.471a1.163,1.163,0,0,1-.278.477.834.834,0,0,1-.437.318,1.551,1.551,0,0,1-1.193,0,1.766,1.766,0,0,1-.437-.318,2.97,2.97,0,0,1-.278-.477,1.353,1.353,0,0,1-.08-.557,2.347,2.347,0,0,1,.08-.557,1.163,1.163,0,0,1,.278-.477,1.766,1.766,0,0,1,.437-.318,1.551,1.551,0,0,1,1.193,0,1.766,1.766,0,0,1,.437.318,2.966,2.966,0,0,1,.278.477,1.449,1.449,0,0,1,.08.557.953.953,0,0,1-.08.557m-4.1-2.068a2.05,2.05,0,0,0-.676-.517,2.228,2.228,0,0,0-1.75,0,2.165,2.165,0,0,0-.716.437,2.256,2.256,0,0,0-.477.716,2.709,2.709,0,0,0,0,1.829,2.079,2.079,0,0,0,.477.676,1.664,1.664,0,0,0,.716.437,2.267,2.267,0,0,0,.875.159,2.466,2.466,0,0,0,.915-.159,2.612,2.612,0,0,0,.676-.477l-.557-.517a1.243,1.243,0,0,1-.437.358,1.453,1.453,0,0,1-1.153,0,1.766,1.766,0,0,1-.437-.318,2.966,2.966,0,0,1-.278-.477,1.9,1.9,0,0,1,0-1.153,1.163,1.163,0,0,1,.278-.477,1.766,1.766,0,0,1,.437-.318,1.4,1.4,0,0,1,.557-.119,1.27,1.27,0,0,1,.557.119,1.557,1.557,0,0,1,.4.318Zm-7.993,1.113a1.059,1.059,0,0,1,.119-.477,1.49,1.49,0,0,1,.676-.636,1.009,1.009,0,0,1,.477-.08,2.327,2.327,0,0,1,.517.08,1.129,1.129,0,0,1,.358.239l.239.358a2,2,0,0,1,.08.477h-2.466Zm3.181-.557a2.328,2.328,0,0,0-.4-.676,1.817,1.817,0,0,0-.636-.437,2.412,2.412,0,0,0-1.67,0,2.461,2.461,0,0,0-.676.437,1.664,1.664,0,0,0-.437.716,2.267,2.267,0,0,0-.159.875,2.466,2.466,0,0,0,.159.915,2.055,2.055,0,0,0,1.153,1.153,2.639,2.639,0,0,0,1.909-.04,2.093,2.093,0,0,0,.8-.636l-.6-.477a1.264,1.264,0,0,1-.477.437,1.645,1.645,0,0,1-.756.2,2.328,2.328,0,0,1-.517-.08,1.642,1.642,0,0,1-.437-.278.909.909,0,0,1-.278-.4,1.059,1.059,0,0,1-.119-.477h3.3v-.278a3.687,3.687,0,0,0-.159-.954m-4.971-1.113h-1.114v-1.193h-.835v1.193h-.8v.676h.8v2.267a1.309,1.309,0,0,0,.318.994,1.512,1.512,0,0,0,1.273.278.749.749,0,0,0,.318-.08l-.04-.676a.565.565,0,0,1-.239.08c-.08,0-.159.04-.239.04a.6.6,0,0,1-.437-.159.913.913,0,0,1-.159-.557v-2.187h1.113Zm-3.857,0h-.835v4.176h.835Zm0-1.909a.557.557,0,0,0-.954.4.388.388,0,0,0,.159.358.577.577,0,0,0,.8,0,.461.461,0,0,0,.159-.4.432.432,0,0,0-.159-.358m-2.426.358a1.976,1.976,0,0,0-.756-.517,2.987,2.987,0,0,0-1.034-.2,4.4,4.4,0,0,0-.756.08,2.11,2.11,0,0,0-.676.318,1.619,1.619,0,0,0-.477.557,1.824,1.824,0,0,0-.04,1.511,1.085,1.085,0,0,0,.358.477,2.255,2.255,0,0,0,.517.318,3.5,3.5,0,0,0,.6.2l.557.2a1.344,1.344,0,0,1,.477.239,1.21,1.21,0,0,1,.318.318,1.014,1.014,0,0,1,0,.954,1.071,1.071,0,0,1-.278.318,1.244,1.244,0,0,1-.4.2,1.631,1.631,0,0,1-.437.04,1.733,1.733,0,0,1-1.392-.716l-.716.636a2.206,2.206,0,0,0,.915.676,2.756,2.756,0,0,0,1.949.119,2.211,2.211,0,0,0,.676-.358,1.761,1.761,0,0,0,.477-.6,1.57,1.57,0,0,0,.159-.835,1.614,1.614,0,0,0-.159-.756,1.785,1.785,0,0,0-.437-.517,2.108,2.108,0,0,0-.6-.318c-.239-.08-.437-.159-.636-.239l-.477-.159a1.244,1.244,0,0,1-.4-.2.929.929,0,0,1-.278-.278.862.862,0,0,1,0-.875,1.072,1.072,0,0,1,.278-.318,1.244,1.244,0,0,1,.4-.2,1.491,1.491,0,0,1,.437-.04,1.56,1.56,0,0,1,.716.159,1.64,1.64,0,0,1,.517.4Zm-8.51,3.1a8.65,8.65,0,0,0-1.034.04,4.082,4.082,0,0,0-.954.2,1.8,1.8,0,0,0-.676.437,1.02,1.02,0,0,0-.239.756,1.035,1.035,0,0,0,.159.6,1.128,1.128,0,0,0,.358.4,1.225,1.225,0,0,0,.477.2,2.328,2.328,0,0,0,.517.08,1.615,1.615,0,0,0,.835-.2,1.4,1.4,0,0,0,.557-.517h.04a3.071,3.071,0,0,0,.08.6h.756a1.352,1.352,0,0,1-.04-.4v-2.267a1.649,1.649,0,0,0-.119-.636,1.4,1.4,0,0,0-.318-.517,1.348,1.348,0,0,0-.557-.358,2.564,2.564,0,0,0-.8-.119,2.673,2.673,0,0,0-.954.159,2.2,2.2,0,0,0-.756.477l.437.517a1.684,1.684,0,0,1,1.193-.477,1.309,1.309,0,0,1,.756.239.757.757,0,0,1,.278.676Zm0,.6v.2a1.39,1.39,0,0,1-.318.875,1.234,1.234,0,0,1-.875.358.876.876,0,0,1-.318-.04c-.08-.04-.2-.04-.278-.119a.479.479,0,0,1-.2-.2.749.749,0,0,1-.08-.318.6.6,0,0,1,.159-.437.948.948,0,0,1,.437-.239l.6-.119c.239,0,.437-.04.636-.04Z" transform="translate(-113.647 -57.106)" fill="#848484"></path></g></svg> 